ISO-10303-21;
HEADER;
/* Generated by software containing ST-Developer
 * from STEP Tools, Inc. (www.steptools.com) 
 */

FILE_DESCRIPTION(
/* description */ (''),
/* implementation_level */ '2;1');

FILE_NAME(
/* name */ 'Base realistic port location.step',
/* time_stamp */ '2026-09-02T16:36:41+12:00',
/* author */ (''),
/* organization */ (''),
/* preprocessor_version */ 'ST-DEVELOPER v20.1',
/* originating_system */ 'Autodesk Translation Framework v15.8.0.0',
/* authorisation */ '');

FILE_SCHEMA (('AUTOMOTIVE_DESIGN { 1 0 10303 214 3 1 1 }'));
ENDSEC;

DATA;
#10=MECHANICAL_DESIGN_GEOMETRIC_PRESENTATION_REPRESENTATION('',(#13),#1339);
#11=SHAPE_REPRESENTATION_RELATIONSHIP('SRR','None',#1346,#12);
#12=ADVANCED_BREP_SHAPE_REPRESENTATION('',(#14),#1338);
#13=STYLED_ITEM('',(#1356),#14);
#14=MANIFOLD_SOLID_BREP('Base',#771);
#15=TOROIDAL_SURFACE('',#805,5.75,2.5);
#16=TOROIDAL_SURFACE('',#812,5.75,2.5);
#17=TOROIDAL_SURFACE('',#818,5.75,2.5);
#18=TOROIDAL_SURFACE('',#824,5.75,2.5);
#19=FACE_BOUND('',#99,.T.);
#20=FACE_BOUND('',#102,.T.);
#21=FACE_BOUND('',#105,.T.);
#22=FACE_BOUND('',#108,.T.);
#23=FACE_BOUND('',#122,.T.);
#24=FACE_BOUND('',#131,.T.);
#25=FACE_BOUND('',#132,.T.);
#26=FACE_BOUND('',#133,.T.);
#27=FACE_BOUND('',#134,.T.);
#28=FACE_BOUND('',#135,.T.);
#29=FACE_BOUND('',#139,.T.);
#30=FACE_BOUND('',#140,.T.);
#31=FACE_BOUND('',#141,.T.);
#32=FACE_BOUND('',#142,.T.);
#33=PLANE('',#788);
#34=PLANE('',#793);
#35=PLANE('',#798);
#36=PLANE('',#803);
#37=PLANE('',#829);
#38=PLANE('',#833);
#39=PLANE('',#837);
#40=PLANE('',#838);
#41=PLANE('',#839);
#42=PLANE('',#842);
#43=PLANE('',#845);
#44=PLANE('',#849);
#45=PLANE('',#861);
#46=PLANE('',#863);
#47=PLANE('',#865);
#48=PLANE('',#866);
#49=PLANE('',#867);
#50=PLANE('',#868);
#51=PLANE('',#869);
#52=PLANE('',#874);
#53=FACE_OUTER_BOUND('',#97,.T.);
#54=FACE_OUTER_BOUND('',#98,.T.);
#55=FACE_OUTER_BOUND('',#100,.T.);
#56=FACE_OUTER_BOUND('',#101,.T.);
#57=FACE_OUTER_BOUND('',#103,.T.);
#58=FACE_OUTER_BOUND('',#104,.T.);
#59=FACE_OUTER_BOUND('',#106,.T.);
#60=FACE_OUTER_BOUND('',#107,.T.);
#61=FACE_OUTER_BOUND('',#109,.T.);
#62=FACE_OUTER_BOUND('',#110,.T.);
#63=FACE_OUTER_BOUND('',#111,.T.);
#64=FACE_OUTER_BOUND('',#112,.T.);
#65=FACE_OUTER_BOUND('',#113,.T.);
#66=FACE_OUTER_BOUND('',#114,.T.);
#67=FACE_OUTER_BOUND('',#115,.T.);
#68=FACE_OUTER_BOUND('',#116,.T.);
#69=FACE_OUTER_BOUND('',#117,.T.);
#70=FACE_OUTER_BOUND('',#118,.T.);
#71=FACE_OUTER_BOUND('',#119,.T.);
#72=FACE_OUTER_BOUND('',#120,.T.);
#73=FACE_OUTER_BOUND('',#121,.T.);
#74=FACE_OUTER_BOUND('',#123,.T.);
#75=FACE_OUTER_BOUND('',#124,.T.);
#76=FACE_OUTER_BOUND('',#125,.T.);
#77=FACE_OUTER_BOUND('',#126,.T.);
#78=FACE_OUTER_BOUND('',#127,.T.);
#79=FACE_OUTER_BOUND('',#128,.T.);
#80=FACE_OUTER_BOUND('',#129,.T.);
#81=FACE_OUTER_BOUND('',#130,.T.);
#82=FACE_OUTER_BOUND('',#136,.T.);
#83=FACE_OUTER_BOUND('',#137,.T.);
#84=FACE_OUTER_BOUND('',#138,.T.);
#85=FACE_OUTER_BOUND('',#143,.T.);
#86=FACE_OUTER_BOUND('',#144,.T.);
#87=FACE_OUTER_BOUND('',#145,.T.);
#88=FACE_OUTER_BOUND('',#146,.T.);
#89=FACE_OUTER_BOUND('',#147,.T.);
#90=FACE_OUTER_BOUND('',#148,.T.);
#91=FACE_OUTER_BOUND('',#149,.T.);
#92=FACE_OUTER_BOUND('',#150,.T.);
#93=FACE_OUTER_BOUND('',#151,.T.);
#94=FACE_OUTER_BOUND('',#152,.T.);
#95=FACE_OUTER_BOUND('',#153,.T.);
#96=FACE_OUTER_BOUND('',#154,.T.);
#97=EDGE_LOOP('',(#495,#496,#497,#498));
#98=EDGE_LOOP('',(#499));
#99=EDGE_LOOP('',(#500));
#100=EDGE_LOOP('',(#501,#502,#503,#504));
#101=EDGE_LOOP('',(#505));
#102=EDGE_LOOP('',(#506));
#103=EDGE_LOOP('',(#507,#508,#509,#510));
#104=EDGE_LOOP('',(#511));
#105=EDGE_LOOP('',(#512));
#106=EDGE_LOOP('',(#513,#514,#515,#516));
#107=EDGE_LOOP('',(#517));
#108=EDGE_LOOP('',(#518));
#109=EDGE_LOOP('',(#519,#520,#521,#522));
#110=EDGE_LOOP('',(#523,#524,#525,#526));
#111=EDGE_LOOP('',(#527,#528,#529,#530));
#112=EDGE_LOOP('',(#531,#532,#533,#534));
#113=EDGE_LOOP('',(#535,#536,#537,#538));
#114=EDGE_LOOP('',(#539,#540,#541,#542));
#115=EDGE_LOOP('',(#543,#544,#545,#546));
#116=EDGE_LOOP('',(#547,#548,#549,#550));
#117=EDGE_LOOP('',(#551,#552,#553,#554));
#118=EDGE_LOOP('',(#555,#556,#557,#558,#559,#560));
#119=EDGE_LOOP('',(#561,#562,#563,#564));
#120=EDGE_LOOP('',(#565,#566,#567,#568,#569,#570));
#121=EDGE_LOOP('',(#571,#572,#573,#574));
#122=EDGE_LOOP('',(#575,#576,#577,#578,#579,#580,#581,#582));
#123=EDGE_LOOP('',(#583,#584,#585,#586));
#124=EDGE_LOOP('',(#587,#588,#589,#590));
#125=EDGE_LOOP('',(#591,#592,#593,#594));
#126=EDGE_LOOP('',(#595,#596,#597,#598));
#127=EDGE_LOOP('',(#599,#600,#601,#602));
#128=EDGE_LOOP('',(#603,#604,#605,#606,#607,#608,#609,#610));
#129=EDGE_LOOP('',(#611,#612,#613,#614));
#130=EDGE_LOOP('',(#615,#616,#617,#618,#619,#620,#621,#622));
#131=EDGE_LOOP('',(#623));
#132=EDGE_LOOP('',(#624));
#133=EDGE_LOOP('',(#625));
#134=EDGE_LOOP('',(#626));
#135=EDGE_LOOP('',(#627,#628,#629,#630));
#136=EDGE_LOOP('',(#631,#632,#633,#634));
#137=EDGE_LOOP('',(#635,#636,#637,#638));
#138=EDGE_LOOP('',(#639,#640,#641,#642,#643,#644,#645,#646));
#139=EDGE_LOOP('',(#647));
#140=EDGE_LOOP('',(#648));
#141=EDGE_LOOP('',(#649));
#142=EDGE_LOOP('',(#650));
#143=EDGE_LOOP('',(#651,#652,#653,#654));
#144=EDGE_LOOP('',(#655,#656,#657,#658));
#145=EDGE_LOOP('',(#659,#660,#661,#662));
#146=EDGE_LOOP('',(#663,#664,#665,#666));
#147=EDGE_LOOP('',(#667,#668,#669,#670));
#148=EDGE_LOOP('',(#671,#672,#673,#674,#675,#676,#677,#678,#679,#680,#681,
#682));
#149=EDGE_LOOP('',(#683,#684,#685,#686));
#150=EDGE_LOOP('',(#687,#688,#689,#690));
#151=EDGE_LOOP('',(#691,#692,#693,#694));
#152=EDGE_LOOP('',(#695,#696,#697,#698));
#153=EDGE_LOOP('',(#699,#700,#701,#702));
#154=EDGE_LOOP('',(#703,#704,#705,#706));
#155=CIRCLE('',#787,3.);
#156=CIRCLE('',#789,1.7);
#157=CIRCLE('',#792,3.);
#158=CIRCLE('',#794,1.7);
#159=CIRCLE('',#797,3.);
#160=CIRCLE('',#799,1.7);
#161=CIRCLE('',#802,3.);
#162=CIRCLE('',#804,1.7);
#163=CIRCLE('',#806,2.50000000000001);
#164=CIRCLE('',#807,3.25);
#165=CIRCLE('',#808,2.5);
#166=CIRCLE('',#809,5.75);
#167=CIRCLE('',#811,2.5);
#168=CIRCLE('',#813,2.5);
#169=CIRCLE('',#814,5.75);
#170=CIRCLE('',#815,3.25);
#171=CIRCLE('',#817,2.5);
#172=CIRCLE('',#819,2.5);
#173=CIRCLE('',#820,5.75);
#174=CIRCLE('',#821,3.25);
#175=CIRCLE('',#823,2.5);
#176=CIRCLE('',#825,2.5);
#177=CIRCLE('',#826,5.75);
#178=CIRCLE('',#827,3.25);
#179=CIRCLE('',#831,3.25);
#180=CIRCLE('',#832,3.25);
#181=CIRCLE('',#835,3.25);
#182=CIRCLE('',#836,3.25);
#183=CIRCLE('',#841,3.25);
#184=CIRCLE('',#844,3.25);
#185=CIRCLE('',#847,5.);
#186=CIRCLE('',#850,5.);
#187=CIRCLE('',#851,5.);
#188=CIRCLE('',#852,5.);
#189=CIRCLE('',#853,1.7);
#190=CIRCLE('',#854,1.7);
#191=CIRCLE('',#855,1.7);
#192=CIRCLE('',#856,1.7);
#193=LINE('',#1122,#253);
#194=LINE('',#1131,#254);
#195=LINE('',#1140,#255);
#196=LINE('',#1149,#256);
#197=LINE('',#1167,#257);
#198=LINE('',#1168,#258);
#199=LINE('',#1179,#259);
#200=LINE('',#1180,#260);
#201=LINE('',#1191,#261);
#202=LINE('',#1192,#262);
#203=LINE('',#1200,#263);
#204=LINE('',#1201,#264);
#205=LINE('',#1204,#265);
#206=LINE('',#1206,#266);
#207=LINE('',#1207,#267);
#208=LINE('',#1210,#268);
#209=LINE('',#1214,#269);
#210=LINE('',#1218,#270);
#211=LINE('',#1219,#271);
#212=LINE('',#1222,#272);
#213=LINE('',#1226,#273);
#214=LINE('',#1231,#274);
#215=LINE('',#1233,#275);
#216=LINE('',#1235,#276);
#217=LINE('',#1236,#277);
#218=LINE('',#1238,#278);
#219=LINE('',#1241,#279);
#220=LINE('',#1242,#280);
#221=LINE('',#1245,#281);
#222=LINE('',#1249,#282);
#223=LINE('',#1250,#283);
#224=LINE('',#1255,#284);
#225=LINE('',#1257,#285);
#226=LINE('',#1259,#286);
#227=LINE('',#1261,#287);
#228=LINE('',#1262,#288);
#229=LINE('',#1267,#289);
#230=LINE('',#1273,#290);
#231=LINE('',#1277,#291);
#232=LINE('',#1280,#292);
#233=LINE('',#1291,#293);
#234=LINE('',#1293,#294);
#235=LINE('',#1295,#295);
#236=LINE('',#1296,#296);
#237=LINE('',#1300,#297);
#238=LINE('',#1303,#298);
#239=LINE('',#1306,#299);
#240=LINE('',#1308,#300);
#241=LINE('',#1310,#301);
#242=LINE('',#1313,#302);
#243=LINE('',#1315,#303);
#244=LINE('',#1317,#304);
#245=LINE('',#1319,#305);
#246=LINE('',#1320,#306);
#247=LINE('',#1322,#307);
#248=LINE('',#1324,#308);
#249=LINE('',#1328,#309);
#250=LINE('',#1330,#310);
#251=LINE('',#1332,#311);
#252=LINE('',#1334,#312);
#253=VECTOR('',#881,3.);
#254=VECTOR('',#892,3.);
#255=VECTOR('',#903,3.);
#256=VECTOR('',#914,3.);
#257=VECTOR('',#935,10.);
#258=VECTOR('',#936,10.);
#259=VECTOR('',#949,10.);
#260=VECTOR('',#950,10.);
#261=VECTOR('',#963,10.);
#262=VECTOR('',#964,10.);
#263=VECTOR('',#975,10.);
#264=VECTOR('',#976,10.);
#265=VECTOR('',#979,10.);
#266=VECTOR('',#980,10.);
#267=VECTOR('',#981,10.);
#268=VECTOR('',#984,10.);
#269=VECTOR('',#987,10.);
#270=VECTOR('',#992,10.);
#271=VECTOR('',#993,10.);
#272=VECTOR('',#996,10.);
#273=VECTOR('',#999,10.);
#274=VECTOR('',#1004,10.);
#275=VECTOR('',#1005,10.);
#276=VECTOR('',#1006,10.);
#277=VECTOR('',#1007,10.);
#278=VECTOR('',#1010,10.);
#279=VECTOR('',#1013,10.);
#280=VECTOR('',#1014,10.);
#281=VECTOR('',#1017,10.);
#282=VECTOR('',#1022,10.);
#283=VECTOR('',#1023,10.);
#284=VECTOR('',#1030,10.);
#285=VECTOR('',#1031,10.);
#286=VECTOR('',#1032,10.);
#287=VECTOR('',#1033,10.);
#288=VECTOR('',#1034,10.);
#289=VECTOR('',#1039,10.);
#290=VECTOR('',#1046,10.);
#291=VECTOR('',#1049,10.);
#292=VECTOR('',#1052,10.);
#293=VECTOR('',#1061,10.);
#294=VECTOR('',#1062,10.);
#295=VECTOR('',#1063,10.);
#296=VECTOR('',#1064,10.);
#297=VECTOR('',#1069,10.);
#298=VECTOR('',#1072,10.);
#299=VECTOR('',#1075,10.);
#300=VECTOR('',#1078,10.);
#301=VECTOR('',#1079,10.);
#302=VECTOR('',#1082,10.);
#303=VECTOR('',#1085,10.);
#304=VECTOR('',#1088,10.);
#305=VECTOR('',#1091,10.);
#306=VECTOR('',#1092,10.);
#307=VECTOR('',#1095,10.);
#308=VECTOR('',#1098,10.);
#309=VECTOR('',#1105,1.7);
#310=VECTOR('',#1108,1.7);
#311=VECTOR('',#1111,1.7);
#312=VECTOR('',#1114,1.7);
#313=ELLIPSE('',#786,3.00521644267679,3.);
#314=ELLIPSE('',#791,3.00521644267679,3.);
#315=ELLIPSE('',#796,3.00521644267679,3.);
#316=ELLIPSE('',#801,3.00521644267679,3.);
#317=ELLIPSE('',#848,5.00869407112799,5.);
#318=ELLIPSE('',#858,5.00869407112799,5.);
#319=ELLIPSE('',#860,5.00869407112799,5.);
#320=ELLIPSE('',#862,5.00869407112799,5.);
#321=VERTEX_POINT('',#1119);
#322=VERTEX_POINT('',#1121);
#323=VERTEX_POINT('',#1125);
#324=VERTEX_POINT('',#1128);
#325=VERTEX_POINT('',#1130);
#326=VERTEX_POINT('',#1134);
#327=VERTEX_POINT('',#1137);
#328=VERTEX_POINT('',#1139);
#329=VERTEX_POINT('',#1143);
#330=VERTEX_POINT('',#1146);
#331=VERTEX_POINT('',#1148);
#332=VERTEX_POINT('',#1152);
#333=VERTEX_POINT('',#1155);
#334=VERTEX_POINT('',#1156);
#335=VERTEX_POINT('',#1158);
#336=VERTEX_POINT('',#1160);
#337=VERTEX_POINT('',#1164);
#338=VERTEX_POINT('',#1165);
#339=VERTEX_POINT('',#1170);
#340=VERTEX_POINT('',#1171);
#341=VERTEX_POINT('',#1176);
#342=VERTEX_POINT('',#1177);
#343=VERTEX_POINT('',#1182);
#344=VERTEX_POINT('',#1183);
#345=VERTEX_POINT('',#1188);
#346=VERTEX_POINT('',#1189);
#347=VERTEX_POINT('',#1194);
#348=VERTEX_POINT('',#1195);
#349=VERTEX_POINT('',#1203);
#350=VERTEX_POINT('',#1205);
#351=VERTEX_POINT('',#1209);
#352=VERTEX_POINT('',#1211);
#353=VERTEX_POINT('',#1213);
#354=VERTEX_POINT('',#1217);
#355=VERTEX_POINT('',#1221);
#356=VERTEX_POINT('',#1223);
#357=VERTEX_POINT('',#1225);
#358=VERTEX_POINT('',#1229);
#359=VERTEX_POINT('',#1230);
#360=VERTEX_POINT('',#1232);
#361=VERTEX_POINT('',#1234);
#362=VERTEX_POINT('',#1240);
#363=VERTEX_POINT('',#1244);
#364=VERTEX_POINT('',#1248);
#365=VERTEX_POINT('',#1254);
#366=VERTEX_POINT('',#1256);
#367=VERTEX_POINT('',#1258);
#368=VERTEX_POINT('',#1260);
#369=VERTEX_POINT('',#1264);
#370=VERTEX_POINT('',#1266);
#371=VERTEX_POINT('',#1270);
#372=VERTEX_POINT('',#1272);
#373=VERTEX_POINT('',#1274);
#374=VERTEX_POINT('',#1276);
#375=VERTEX_POINT('',#1278);
#376=VERTEX_POINT('',#1281);
#377=VERTEX_POINT('',#1283);
#378=VERTEX_POINT('',#1285);
#379=VERTEX_POINT('',#1287);
#380=VERTEX_POINT('',#1289);
#381=VERTEX_POINT('',#1290);
#382=VERTEX_POINT('',#1292);
#383=VERTEX_POINT('',#1294);
#384=VERTEX_POINT('',#1298);
#385=VERTEX_POINT('',#1302);
#386=VERTEX_POINT('',#1304);
#387=VERTEX_POINT('',#1309);
#388=VERTEX_POINT('',#1311);
#389=EDGE_CURVE('',#321,#321,#313,.T.);
#390=EDGE_CURVE('',#321,#322,#193,.T.);
#391=EDGE_CURVE('',#322,#322,#155,.T.);
#392=EDGE_CURVE('',#323,#323,#156,.T.);
#393=EDGE_CURVE('',#324,#324,#314,.T.);
#394=EDGE_CURVE('',#324,#325,#194,.T.);
#395=EDGE_CURVE('',#325,#325,#157,.T.);
#396=EDGE_CURVE('',#326,#326,#158,.T.);
#397=EDGE_CURVE('',#327,#327,#315,.T.);
#398=EDGE_CURVE('',#327,#328,#195,.T.);
#399=EDGE_CURVE('',#328,#328,#159,.T.);
#400=EDGE_CURVE('',#329,#329,#160,.T.);
#401=EDGE_CURVE('',#330,#330,#316,.T.);
#402=EDGE_CURVE('',#330,#331,#196,.T.);
#403=EDGE_CURVE('',#331,#331,#161,.T.);
#404=EDGE_CURVE('',#332,#332,#162,.T.);
#405=EDGE_CURVE('',#333,#334,#163,.T.);
#406=EDGE_CURVE('',#334,#335,#164,.T.);
#407=EDGE_CURVE('',#335,#336,#165,.T.);
#408=EDGE_CURVE('',#336,#333,#166,.T.);
#409=EDGE_CURVE('',#337,#338,#167,.T.);
#410=EDGE_CURVE('',#338,#336,#197,.T.);
#411=EDGE_CURVE('',#335,#337,#198,.T.);
#412=EDGE_CURVE('',#339,#340,#168,.T.);
#413=EDGE_CURVE('',#340,#338,#169,.T.);
#414=EDGE_CURVE('',#337,#339,#170,.T.);
#415=EDGE_CURVE('',#341,#342,#171,.T.);
#416=EDGE_CURVE('',#342,#340,#199,.T.);
#417=EDGE_CURVE('',#339,#341,#200,.T.);
#418=EDGE_CURVE('',#343,#344,#172,.T.);
#419=EDGE_CURVE('',#344,#342,#173,.T.);
#420=EDGE_CURVE('',#341,#343,#174,.T.);
#421=EDGE_CURVE('',#345,#346,#175,.T.);
#422=EDGE_CURVE('',#346,#344,#201,.T.);
#423=EDGE_CURVE('',#343,#345,#202,.T.);
#424=EDGE_CURVE('',#347,#348,#176,.T.);
#425=EDGE_CURVE('',#348,#346,#177,.T.);
#426=EDGE_CURVE('',#345,#347,#178,.T.);
#427=EDGE_CURVE('',#333,#348,#203,.T.);
#428=EDGE_CURVE('',#347,#334,#204,.T.);
#429=EDGE_CURVE('',#339,#349,#205,.T.);
#430=EDGE_CURVE('',#350,#349,#206,.T.);
#431=EDGE_CURVE('',#341,#350,#207,.T.);
#432=EDGE_CURVE('',#337,#351,#208,.T.);
#433=EDGE_CURVE('',#351,#352,#179,.T.);
#434=EDGE_CURVE('',#353,#352,#209,.T.);
#435=EDGE_CURVE('',#349,#353,#180,.T.);
#436=EDGE_CURVE('',#335,#354,#210,.T.);
#437=EDGE_CURVE('',#354,#351,#211,.T.);
#438=EDGE_CURVE('',#334,#355,#212,.T.);
#439=EDGE_CURVE('',#356,#355,#181,.T.);
#440=EDGE_CURVE('',#357,#356,#213,.T.);
#441=EDGE_CURVE('',#357,#354,#182,.T.);
#442=EDGE_CURVE('',#358,#359,#214,.T.);
#443=EDGE_CURVE('',#360,#358,#215,.T.);
#444=EDGE_CURVE('',#361,#360,#216,.T.);
#445=EDGE_CURVE('',#359,#361,#217,.T.);
#446=EDGE_CURVE('',#352,#357,#218,.T.);
#447=EDGE_CURVE('',#347,#362,#219,.T.);
#448=EDGE_CURVE('',#355,#362,#220,.T.);
#449=EDGE_CURVE('',#345,#363,#221,.T.);
#450=EDGE_CURVE('',#362,#363,#183,.T.);
#451=EDGE_CURVE('',#343,#364,#222,.T.);
#452=EDGE_CURVE('',#363,#364,#223,.T.);
#453=EDGE_CURVE('',#364,#350,#184,.T.);
#454=EDGE_CURVE('',#356,#365,#224,.T.);
#455=EDGE_CURVE('',#365,#366,#225,.T.);
#456=EDGE_CURVE('',#366,#367,#226,.T.);
#457=EDGE_CURVE('',#367,#368,#227,.T.);
#458=EDGE_CURVE('',#368,#353,#228,.T.);
#459=EDGE_CURVE('',#359,#369,#185,.T.);
#460=EDGE_CURVE('',#369,#370,#229,.T.);
#461=EDGE_CURVE('',#370,#358,#317,.T.);
#462=EDGE_CURVE('',#371,#361,#186,.T.);
#463=EDGE_CURVE('',#371,#372,#230,.T.);
#464=EDGE_CURVE('',#373,#372,#187,.T.);
#465=EDGE_CURVE('',#373,#374,#231,.T.);
#466=EDGE_CURVE('',#375,#374,#188,.T.);
#467=EDGE_CURVE('',#375,#369,#232,.T.);
#468=EDGE_CURVE('',#376,#376,#189,.T.);
#469=EDGE_CURVE('',#377,#377,#190,.T.);
#470=EDGE_CURVE('',#378,#378,#191,.T.);
#471=EDGE_CURVE('',#379,#379,#192,.T.);
#472=EDGE_CURVE('',#380,#381,#233,.T.);
#473=EDGE_CURVE('',#381,#382,#234,.T.);
#474=EDGE_CURVE('',#382,#383,#235,.T.);
#475=EDGE_CURVE('',#383,#380,#236,.T.);
#476=EDGE_CURVE('',#360,#384,#318,.T.);
#477=EDGE_CURVE('',#384,#371,#237,.T.);
#478=EDGE_CURVE('',#374,#385,#238,.T.);
#479=EDGE_CURVE('',#385,#386,#319,.T.);
#480=EDGE_CURVE('',#386,#375,#239,.T.);
#481=EDGE_CURVE('',#386,#370,#240,.T.);
#482=EDGE_CURVE('',#387,#385,#241,.T.);
#483=EDGE_CURVE('',#388,#387,#320,.T.);
#484=EDGE_CURVE('',#384,#388,#242,.T.);
#485=EDGE_CURVE('',#387,#373,#243,.T.);
#486=EDGE_CURVE('',#372,#388,#244,.T.);
#487=EDGE_CURVE('',#365,#380,#245,.T.);
#488=EDGE_CURVE('',#366,#383,#246,.T.);
#489=EDGE_CURVE('',#367,#382,#247,.T.);
#490=EDGE_CURVE('',#368,#381,#248,.T.);
#491=EDGE_CURVE('',#379,#332,#249,.T.);
#492=EDGE_CURVE('',#377,#323,#250,.T.);
#493=EDGE_CURVE('',#378,#326,#251,.T.);
#494=EDGE_CURVE('',#376,#329,#252,.T.);
#495=ORIENTED_EDGE('',*,*,#389,.F.);
#496=ORIENTED_EDGE('',*,*,#390,.T.);
#497=ORIENTED_EDGE('',*,*,#391,.T.);
#498=ORIENTED_EDGE('',*,*,#390,.F.);
#499=ORIENTED_EDGE('',*,*,#391,.F.);
#500=ORIENTED_EDGE('',*,*,#392,.F.);
#501=ORIENTED_EDGE('',*,*,#393,.F.);
#502=ORIENTED_EDGE('',*,*,#394,.T.);
#503=ORIENTED_EDGE('',*,*,#395,.T.);
#504=ORIENTED_EDGE('',*,*,#394,.F.);
#505=ORIENTED_EDGE('',*,*,#395,.F.);
#506=ORIENTED_EDGE('',*,*,#396,.F.);
#507=ORIENTED_EDGE('',*,*,#397,.F.);
#508=ORIENTED_EDGE('',*,*,#398,.T.);
#509=ORIENTED_EDGE('',*,*,#399,.T.);
#510=ORIENTED_EDGE('',*,*,#398,.F.);
#511=ORIENTED_EDGE('',*,*,#399,.F.);
#512=ORIENTED_EDGE('',*,*,#400,.F.);
#513=ORIENTED_EDGE('',*,*,#401,.F.);
#514=ORIENTED_EDGE('',*,*,#402,.T.);
#515=ORIENTED_EDGE('',*,*,#403,.T.);
#516=ORIENTED_EDGE('',*,*,#402,.F.);
#517=ORIENTED_EDGE('',*,*,#403,.F.);
#518=ORIENTED_EDGE('',*,*,#404,.F.);
#519=ORIENTED_EDGE('',*,*,#405,.T.);
#520=ORIENTED_EDGE('',*,*,#406,.T.);
#521=ORIENTED_EDGE('',*,*,#407,.T.);
#522=ORIENTED_EDGE('',*,*,#408,.T.);
#523=ORIENTED_EDGE('',*,*,#409,.T.);
#524=ORIENTED_EDGE('',*,*,#410,.T.);
#525=ORIENTED_EDGE('',*,*,#407,.F.);
#526=ORIENTED_EDGE('',*,*,#411,.T.);
#527=ORIENTED_EDGE('',*,*,#412,.T.);
#528=ORIENTED_EDGE('',*,*,#413,.T.);
#529=ORIENTED_EDGE('',*,*,#409,.F.);
#530=ORIENTED_EDGE('',*,*,#414,.T.);
#531=ORIENTED_EDGE('',*,*,#415,.T.);
#532=ORIENTED_EDGE('',*,*,#416,.T.);
#533=ORIENTED_EDGE('',*,*,#412,.F.);
#534=ORIENTED_EDGE('',*,*,#417,.T.);
#535=ORIENTED_EDGE('',*,*,#418,.T.);
#536=ORIENTED_EDGE('',*,*,#419,.T.);
#537=ORIENTED_EDGE('',*,*,#415,.F.);
#538=ORIENTED_EDGE('',*,*,#420,.T.);
#539=ORIENTED_EDGE('',*,*,#421,.T.);
#540=ORIENTED_EDGE('',*,*,#422,.T.);
#541=ORIENTED_EDGE('',*,*,#418,.F.);
#542=ORIENTED_EDGE('',*,*,#423,.T.);
#543=ORIENTED_EDGE('',*,*,#424,.T.);
#544=ORIENTED_EDGE('',*,*,#425,.T.);
#545=ORIENTED_EDGE('',*,*,#421,.F.);
#546=ORIENTED_EDGE('',*,*,#426,.T.);
#547=ORIENTED_EDGE('',*,*,#405,.F.);
#548=ORIENTED_EDGE('',*,*,#427,.T.);
#549=ORIENTED_EDGE('',*,*,#424,.F.);
#550=ORIENTED_EDGE('',*,*,#428,.T.);
#551=ORIENTED_EDGE('',*,*,#417,.F.);
#552=ORIENTED_EDGE('',*,*,#429,.T.);
#553=ORIENTED_EDGE('',*,*,#430,.F.);
#554=ORIENTED_EDGE('',*,*,#431,.F.);
#555=ORIENTED_EDGE('',*,*,#414,.F.);
#556=ORIENTED_EDGE('',*,*,#432,.T.);
#557=ORIENTED_EDGE('',*,*,#433,.T.);
#558=ORIENTED_EDGE('',*,*,#434,.F.);
#559=ORIENTED_EDGE('',*,*,#435,.F.);
#560=ORIENTED_EDGE('',*,*,#429,.F.);
#561=ORIENTED_EDGE('',*,*,#411,.F.);
#562=ORIENTED_EDGE('',*,*,#436,.T.);
#563=ORIENTED_EDGE('',*,*,#437,.T.);
#564=ORIENTED_EDGE('',*,*,#432,.F.);
#565=ORIENTED_EDGE('',*,*,#406,.F.);
#566=ORIENTED_EDGE('',*,*,#438,.T.);
#567=ORIENTED_EDGE('',*,*,#439,.F.);
#568=ORIENTED_EDGE('',*,*,#440,.F.);
#569=ORIENTED_EDGE('',*,*,#441,.T.);
#570=ORIENTED_EDGE('',*,*,#436,.F.);
#571=ORIENTED_EDGE('',*,*,#442,.F.);
#572=ORIENTED_EDGE('',*,*,#443,.F.);
#573=ORIENTED_EDGE('',*,*,#444,.F.);
#574=ORIENTED_EDGE('',*,*,#445,.F.);
#575=ORIENTED_EDGE('',*,*,#408,.F.);
#576=ORIENTED_EDGE('',*,*,#410,.F.);
#577=ORIENTED_EDGE('',*,*,#413,.F.);
#578=ORIENTED_EDGE('',*,*,#416,.F.);
#579=ORIENTED_EDGE('',*,*,#419,.F.);
#580=ORIENTED_EDGE('',*,*,#422,.F.);
#581=ORIENTED_EDGE('',*,*,#425,.F.);
#582=ORIENTED_EDGE('',*,*,#427,.F.);
#583=ORIENTED_EDGE('',*,*,#446,.F.);
#584=ORIENTED_EDGE('',*,*,#433,.F.);
#585=ORIENTED_EDGE('',*,*,#437,.F.);
#586=ORIENTED_EDGE('',*,*,#441,.F.);
#587=ORIENTED_EDGE('',*,*,#428,.F.);
#588=ORIENTED_EDGE('',*,*,#447,.T.);
#589=ORIENTED_EDGE('',*,*,#448,.F.);
#590=ORIENTED_EDGE('',*,*,#438,.F.);
#591=ORIENTED_EDGE('',*,*,#426,.F.);
#592=ORIENTED_EDGE('',*,*,#449,.T.);
#593=ORIENTED_EDGE('',*,*,#450,.F.);
#594=ORIENTED_EDGE('',*,*,#447,.F.);
#595=ORIENTED_EDGE('',*,*,#423,.F.);
#596=ORIENTED_EDGE('',*,*,#451,.T.);
#597=ORIENTED_EDGE('',*,*,#452,.F.);
#598=ORIENTED_EDGE('',*,*,#449,.F.);
#599=ORIENTED_EDGE('',*,*,#420,.F.);
#600=ORIENTED_EDGE('',*,*,#431,.T.);
#601=ORIENTED_EDGE('',*,*,#453,.F.);
#602=ORIENTED_EDGE('',*,*,#451,.F.);
#603=ORIENTED_EDGE('',*,*,#434,.T.);
#604=ORIENTED_EDGE('',*,*,#446,.T.);
#605=ORIENTED_EDGE('',*,*,#440,.T.);
#606=ORIENTED_EDGE('',*,*,#454,.T.);
#607=ORIENTED_EDGE('',*,*,#455,.T.);
#608=ORIENTED_EDGE('',*,*,#456,.T.);
#609=ORIENTED_EDGE('',*,*,#457,.T.);
#610=ORIENTED_EDGE('',*,*,#458,.T.);
#611=ORIENTED_EDGE('',*,*,#459,.T.);
#612=ORIENTED_EDGE('',*,*,#460,.T.);
#613=ORIENTED_EDGE('',*,*,#461,.T.);
#614=ORIENTED_EDGE('',*,*,#442,.T.);
#615=ORIENTED_EDGE('',*,*,#459,.F.);
#616=ORIENTED_EDGE('',*,*,#445,.T.);
#617=ORIENTED_EDGE('',*,*,#462,.F.);
#618=ORIENTED_EDGE('',*,*,#463,.T.);
#619=ORIENTED_EDGE('',*,*,#464,.F.);
#620=ORIENTED_EDGE('',*,*,#465,.T.);
#621=ORIENTED_EDGE('',*,*,#466,.F.);
#622=ORIENTED_EDGE('',*,*,#467,.T.);
#623=ORIENTED_EDGE('',*,*,#468,.T.);
#624=ORIENTED_EDGE('',*,*,#469,.T.);
#625=ORIENTED_EDGE('',*,*,#470,.T.);
#626=ORIENTED_EDGE('',*,*,#471,.T.);
#627=ORIENTED_EDGE('',*,*,#472,.T.);
#628=ORIENTED_EDGE('',*,*,#473,.T.);
#629=ORIENTED_EDGE('',*,*,#474,.T.);
#630=ORIENTED_EDGE('',*,*,#475,.T.);
#631=ORIENTED_EDGE('',*,*,#462,.T.);
#632=ORIENTED_EDGE('',*,*,#444,.T.);
#633=ORIENTED_EDGE('',*,*,#476,.T.);
#634=ORIENTED_EDGE('',*,*,#477,.T.);
#635=ORIENTED_EDGE('',*,*,#466,.T.);
#636=ORIENTED_EDGE('',*,*,#478,.T.);
#637=ORIENTED_EDGE('',*,*,#479,.T.);
#638=ORIENTED_EDGE('',*,*,#480,.T.);
#639=ORIENTED_EDGE('',*,*,#461,.F.);
#640=ORIENTED_EDGE('',*,*,#481,.F.);
#641=ORIENTED_EDGE('',*,*,#479,.F.);
#642=ORIENTED_EDGE('',*,*,#482,.F.);
#643=ORIENTED_EDGE('',*,*,#483,.F.);
#644=ORIENTED_EDGE('',*,*,#484,.F.);
#645=ORIENTED_EDGE('',*,*,#476,.F.);
#646=ORIENTED_EDGE('',*,*,#443,.T.);
#647=ORIENTED_EDGE('',*,*,#401,.T.);
#648=ORIENTED_EDGE('',*,*,#397,.T.);
#649=ORIENTED_EDGE('',*,*,#393,.T.);
#650=ORIENTED_EDGE('',*,*,#389,.T.);
#651=ORIENTED_EDGE('',*,*,#478,.F.);
#652=ORIENTED_EDGE('',*,*,#465,.F.);
#653=ORIENTED_EDGE('',*,*,#485,.F.);
#654=ORIENTED_EDGE('',*,*,#482,.T.);
#655=ORIENTED_EDGE('',*,*,#464,.T.);
#656=ORIENTED_EDGE('',*,*,#486,.T.);
#657=ORIENTED_EDGE('',*,*,#483,.T.);
#658=ORIENTED_EDGE('',*,*,#485,.T.);
#659=ORIENTED_EDGE('',*,*,#455,.F.);
#660=ORIENTED_EDGE('',*,*,#487,.T.);
#661=ORIENTED_EDGE('',*,*,#475,.F.);
#662=ORIENTED_EDGE('',*,*,#488,.F.);
#663=ORIENTED_EDGE('',*,*,#456,.F.);
#664=ORIENTED_EDGE('',*,*,#488,.T.);
#665=ORIENTED_EDGE('',*,*,#474,.F.);
#666=ORIENTED_EDGE('',*,*,#489,.F.);
#667=ORIENTED_EDGE('',*,*,#457,.F.);
#668=ORIENTED_EDGE('',*,*,#489,.T.);
#669=ORIENTED_EDGE('',*,*,#473,.F.);
#670=ORIENTED_EDGE('',*,*,#490,.F.);
#671=ORIENTED_EDGE('',*,*,#435,.T.);
#672=ORIENTED_EDGE('',*,*,#458,.F.);
#673=ORIENTED_EDGE('',*,*,#490,.T.);
#674=ORIENTED_EDGE('',*,*,#472,.F.);
#675=ORIENTED_EDGE('',*,*,#487,.F.);
#676=ORIENTED_EDGE('',*,*,#454,.F.);
#677=ORIENTED_EDGE('',*,*,#439,.T.);
#678=ORIENTED_EDGE('',*,*,#448,.T.);
#679=ORIENTED_EDGE('',*,*,#450,.T.);
#680=ORIENTED_EDGE('',*,*,#452,.T.);
#681=ORIENTED_EDGE('',*,*,#453,.T.);
#682=ORIENTED_EDGE('',*,*,#430,.T.);
#683=ORIENTED_EDGE('',*,*,#477,.F.);
#684=ORIENTED_EDGE('',*,*,#484,.T.);
#685=ORIENTED_EDGE('',*,*,#486,.F.);
#686=ORIENTED_EDGE('',*,*,#463,.F.);
#687=ORIENTED_EDGE('',*,*,#471,.F.);
#688=ORIENTED_EDGE('',*,*,#491,.T.);
#689=ORIENTED_EDGE('',*,*,#404,.T.);
#690=ORIENTED_EDGE('',*,*,#491,.F.);
#691=ORIENTED_EDGE('',*,*,#469,.F.);
#692=ORIENTED_EDGE('',*,*,#492,.T.);
#693=ORIENTED_EDGE('',*,*,#392,.T.);
#694=ORIENTED_EDGE('',*,*,#492,.F.);
#695=ORIENTED_EDGE('',*,*,#470,.F.);
#696=ORIENTED_EDGE('',*,*,#493,.T.);
#697=ORIENTED_EDGE('',*,*,#396,.T.);
#698=ORIENTED_EDGE('',*,*,#493,.F.);
#699=ORIENTED_EDGE('',*,*,#468,.F.);
#700=ORIENTED_EDGE('',*,*,#494,.T.);
#701=ORIENTED_EDGE('',*,*,#400,.T.);
#702=ORIENTED_EDGE('',*,*,#494,.F.);
#703=ORIENTED_EDGE('',*,*,#460,.F.);
#704=ORIENTED_EDGE('',*,*,#467,.F.);
#705=ORIENTED_EDGE('',*,*,#480,.F.);
#706=ORIENTED_EDGE('',*,*,#481,.T.);
#707=CYLINDRICAL_SURFACE('',#785,3.);
#708=CYLINDRICAL_SURFACE('',#790,3.);
#709=CYLINDRICAL_SURFACE('',#795,3.);
#710=CYLINDRICAL_SURFACE('',#800,3.);
#711=CYLINDRICAL_SURFACE('',#810,2.5);
#712=CYLINDRICAL_SURFACE('',#816,2.5);
#713=CYLINDRICAL_SURFACE('',#822,2.5);
#714=CYLINDRICAL_SURFACE('',#828,2.5);
#715=CYLINDRICAL_SURFACE('',#830,3.25);
#716=CYLINDRICAL_SURFACE('',#834,3.25);
#717=CYLINDRICAL_SURFACE('',#840,3.25);
#718=CYLINDRICAL_SURFACE('',#843,3.25);
#719=CYLINDRICAL_SURFACE('',#846,5.);
#720=CYLINDRICAL_SURFACE('',#857,5.);
#721=CYLINDRICAL_SURFACE('',#859,5.);
#722=CYLINDRICAL_SURFACE('',#864,5.);
#723=CYLINDRICAL_SURFACE('',#870,1.7);
#724=CYLINDRICAL_SURFACE('',#871,1.7);
#725=CYLINDRICAL_SURFACE('',#872,1.7);
#726=CYLINDRICAL_SURFACE('',#873,1.7);
#727=ADVANCED_FACE('',(#53),#707,.F.);
#728=ADVANCED_FACE('',(#54,#19),#33,.F.);
#729=ADVANCED_FACE('',(#55),#708,.F.);
#730=ADVANCED_FACE('',(#56,#20),#34,.F.);
#731=ADVANCED_FACE('',(#57),#709,.F.);
#732=ADVANCED_FACE('',(#58,#21),#35,.F.);
#733=ADVANCED_FACE('',(#59),#710,.F.);
#734=ADVANCED_FACE('',(#60,#22),#36,.F.);
#735=ADVANCED_FACE('',(#61),#15,.T.);
#736=ADVANCED_FACE('',(#62),#711,.T.);
#737=ADVANCED_FACE('',(#63),#16,.T.);
#738=ADVANCED_FACE('',(#64),#712,.T.);
#739=ADVANCED_FACE('',(#65),#17,.T.);
#740=ADVANCED_FACE('',(#66),#713,.T.);
#741=ADVANCED_FACE('',(#67),#18,.T.);
#742=ADVANCED_FACE('',(#68),#714,.T.);
#743=ADVANCED_FACE('',(#69),#37,.F.);
#744=ADVANCED_FACE('',(#70),#715,.F.);
#745=ADVANCED_FACE('',(#71),#38,.F.);
#746=ADVANCED_FACE('',(#72),#716,.F.);
#747=ADVANCED_FACE('',(#73,#23),#39,.T.);
#748=ADVANCED_FACE('',(#74),#40,.T.);
#749=ADVANCED_FACE('',(#75),#41,.F.);
#750=ADVANCED_FACE('',(#76),#717,.F.);
#751=ADVANCED_FACE('',(#77),#42,.F.);
#752=ADVANCED_FACE('',(#78),#718,.F.);
#753=ADVANCED_FACE('',(#79),#43,.T.);
#754=ADVANCED_FACE('',(#80),#719,.T.);
#755=ADVANCED_FACE('',(#81,#24,#25,#26,#27,#28),#44,.T.);
#756=ADVANCED_FACE('',(#82),#720,.T.);
#757=ADVANCED_FACE('',(#83),#721,.T.);
#758=ADVANCED_FACE('',(#84,#29,#30,#31,#32),#45,.F.);
#759=ADVANCED_FACE('',(#85),#46,.T.);
#760=ADVANCED_FACE('',(#86),#722,.T.);
#761=ADVANCED_FACE('',(#87),#47,.T.);
#762=ADVANCED_FACE('',(#88),#48,.T.);
#763=ADVANCED_FACE('',(#89),#49,.T.);
#764=ADVANCED_FACE('',(#90),#50,.T.);
#765=ADVANCED_FACE('',(#91),#51,.T.);
#766=ADVANCED_FACE('',(#92),#723,.F.);
#767=ADVANCED_FACE('',(#93),#724,.F.);
#768=ADVANCED_FACE('',(#94),#725,.F.);
#769=ADVANCED_FACE('',(#95),#726,.F.);
#770=ADVANCED_FACE('',(#96),#52,.T.);
#771=CLOSED_SHELL('',(#727,#728,#729,#730,#731,#732,#733,#734,#735,#736,
#737,#738,#739,#740,#741,#742,#743,#744,#745,#746,#747,#748,#749,#750,#751,
#752,#753,#754,#755,#756,#757,#758,#759,#760,#761,#762,#763,#764,#765,#766,
#767,#768,#769,#770));
#772=DERIVED_UNIT_ELEMENT(#774,1.);
#773=DERIVED_UNIT_ELEMENT(#1341,-3.);
#774=(
MASS_UNIT()
NAMED_UNIT(*)
SI_UNIT(.KILO.,.GRAM.)
);
#775=DERIVED_UNIT((#772,#773));
#776=MEASURE_REPRESENTATION_ITEM('density measure',
POSITIVE_RATIO_MEASURE(7850.),#775);
#777=PROPERTY_DEFINITION_REPRESENTATION(#782,#779);
#778=PROPERTY_DEFINITION_REPRESENTATION(#783,#780);
#779=REPRESENTATION('material name',(#781),#1338);
#780=REPRESENTATION('density',(#776),#1338);
#781=DESCRIPTIVE_REPRESENTATION_ITEM('Steel','Steel');
#782=PROPERTY_DEFINITION('material property','material name',#1348);
#783=PROPERTY_DEFINITION('material property','density of part',#1348);
#784=AXIS2_PLACEMENT_3D('',#1117,#875,#876);
#785=AXIS2_PLACEMENT_3D('',#1118,#877,#878);
#786=AXIS2_PLACEMENT_3D('',#1120,#879,#880);
#787=AXIS2_PLACEMENT_3D('',#1123,#882,#883);
#788=AXIS2_PLACEMENT_3D('',#1124,#884,#885);
#789=AXIS2_PLACEMENT_3D('',#1126,#886,#887);
#790=AXIS2_PLACEMENT_3D('',#1127,#888,#889);
#791=AXIS2_PLACEMENT_3D('',#1129,#890,#891);
#792=AXIS2_PLACEMENT_3D('',#1132,#893,#894);
#793=AXIS2_PLACEMENT_3D('',#1133,#895,#896);
#794=AXIS2_PLACEMENT_3D('',#1135,#897,#898);
#795=AXIS2_PLACEMENT_3D('',#1136,#899,#900);
#796=AXIS2_PLACEMENT_3D('',#1138,#901,#902);
#797=AXIS2_PLACEMENT_3D('',#1141,#904,#905);
#798=AXIS2_PLACEMENT_3D('',#1142,#906,#907);
#799=AXIS2_PLACEMENT_3D('',#1144,#908,#909);
#800=AXIS2_PLACEMENT_3D('',#1145,#910,#911);
#801=AXIS2_PLACEMENT_3D('',#1147,#912,#913);
#802=AXIS2_PLACEMENT_3D('',#1150,#915,#916);
#803=AXIS2_PLACEMENT_3D('',#1151,#917,#918);
#804=AXIS2_PLACEMENT_3D('',#1153,#919,#920);
#805=AXIS2_PLACEMENT_3D('',#1154,#921,#922);
#806=AXIS2_PLACEMENT_3D('',#1157,#923,#924);
#807=AXIS2_PLACEMENT_3D('',#1159,#925,#926);
#808=AXIS2_PLACEMENT_3D('',#1161,#927,#928);
#809=AXIS2_PLACEMENT_3D('',#1162,#929,#930);
#810=AXIS2_PLACEMENT_3D('',#1163,#931,#932);
#811=AXIS2_PLACEMENT_3D('',#1166,#933,#934);
#812=AXIS2_PLACEMENT_3D('',#1169,#937,#938);
#813=AXIS2_PLACEMENT_3D('',#1172,#939,#940);
#814=AXIS2_PLACEMENT_3D('',#1173,#941,#942);
#815=AXIS2_PLACEMENT_3D('',#1174,#943,#944);
#816=AXIS2_PLACEMENT_3D('',#1175,#945,#946);
#817=AXIS2_PLACEMENT_3D('',#1178,#947,#948);
#818=AXIS2_PLACEMENT_3D('',#1181,#951,#952);
#819=AXIS2_PLACEMENT_3D('',#1184,#953,#954);
#820=AXIS2_PLACEMENT_3D('',#1185,#955,#956);
#821=AXIS2_PLACEMENT_3D('',#1186,#957,#958);
#822=AXIS2_PLACEMENT_3D('',#1187,#959,#960);
#823=AXIS2_PLACEMENT_3D('',#1190,#961,#962);
#824=AXIS2_PLACEMENT_3D('',#1193,#965,#966);
#825=AXIS2_PLACEMENT_3D('',#1196,#967,#968);
#826=AXIS2_PLACEMENT_3D('',#1197,#969,#970);
#827=AXIS2_PLACEMENT_3D('',#1198,#971,#972);
#828=AXIS2_PLACEMENT_3D('',#1199,#973,#974);
#829=AXIS2_PLACEMENT_3D('',#1202,#977,#978);
#830=AXIS2_PLACEMENT_3D('',#1208,#982,#983);
#831=AXIS2_PLACEMENT_3D('',#1212,#985,#986);
#832=AXIS2_PLACEMENT_3D('',#1215,#988,#989);
#833=AXIS2_PLACEMENT_3D('',#1216,#990,#991);
#834=AXIS2_PLACEMENT_3D('',#1220,#994,#995);
#835=AXIS2_PLACEMENT_3D('',#1224,#997,#998);
#836=AXIS2_PLACEMENT_3D('',#1227,#1000,#1001);
#837=AXIS2_PLACEMENT_3D('',#1228,#1002,#1003);
#838=AXIS2_PLACEMENT_3D('',#1237,#1008,#1009);
#839=AXIS2_PLACEMENT_3D('',#1239,#1011,#1012);
#840=AXIS2_PLACEMENT_3D('',#1243,#1015,#1016);
#841=AXIS2_PLACEMENT_3D('',#1246,#1018,#1019);
#842=AXIS2_PLACEMENT_3D('',#1247,#1020,#1021);
#843=AXIS2_PLACEMENT_3D('',#1251,#1024,#1025);
#844=AXIS2_PLACEMENT_3D('',#1252,#1026,#1027);
#845=AXIS2_PLACEMENT_3D('',#1253,#1028,#1029);
#846=AXIS2_PLACEMENT_3D('',#1263,#1035,#1036);
#847=AXIS2_PLACEMENT_3D('',#1265,#1037,#1038);
#848=AXIS2_PLACEMENT_3D('',#1268,#1040,#1041);
#849=AXIS2_PLACEMENT_3D('',#1269,#1042,#1043);
#850=AXIS2_PLACEMENT_3D('',#1271,#1044,#1045);
#851=AXIS2_PLACEMENT_3D('',#1275,#1047,#1048);
#852=AXIS2_PLACEMENT_3D('',#1279,#1050,#1051);
#853=AXIS2_PLACEMENT_3D('',#1282,#1053,#1054);
#854=AXIS2_PLACEMENT_3D('',#1284,#1055,#1056);
#855=AXIS2_PLACEMENT_3D('',#1286,#1057,#1058);
#856=AXIS2_PLACEMENT_3D('',#1288,#1059,#1060);
#857=AXIS2_PLACEMENT_3D('',#1297,#1065,#1066);
#858=AXIS2_PLACEMENT_3D('',#1299,#1067,#1068);
#859=AXIS2_PLACEMENT_3D('',#1301,#1070,#1071);
#860=AXIS2_PLACEMENT_3D('',#1305,#1073,#1074);
#861=AXIS2_PLACEMENT_3D('',#1307,#1076,#1077);
#862=AXIS2_PLACEMENT_3D('',#1312,#1080,#1081);
#863=AXIS2_PLACEMENT_3D('',#1314,#1083,#1084);
#864=AXIS2_PLACEMENT_3D('',#1316,#1086,#1087);
#865=AXIS2_PLACEMENT_3D('',#1318,#1089,#1090);
#866=AXIS2_PLACEMENT_3D('',#1321,#1093,#1094);
#867=AXIS2_PLACEMENT_3D('',#1323,#1096,#1097);
#868=AXIS2_PLACEMENT_3D('',#1325,#1099,#1100);
#869=AXIS2_PLACEMENT_3D('',#1326,#1101,#1102);
#870=AXIS2_PLACEMENT_3D('',#1327,#1103,#1104);
#871=AXIS2_PLACEMENT_3D('',#1329,#1106,#1107);
#872=AXIS2_PLACEMENT_3D('',#1331,#1109,#1110);
#873=AXIS2_PLACEMENT_3D('',#1333,#1112,#1113);
#874=AXIS2_PLACEMENT_3D('',#1335,#1115,#1116);
#875=DIRECTION('axis',(0.,0.,1.));
#876=DIRECTION('refdir',(1.,0.,0.));
#877=DIRECTION('center_axis',(0.,0.,1.));
#878=DIRECTION('ref_axis',(1.,0.,0.));
#879=DIRECTION('center_axis',(0.,0.0588946433039043,0.998264204001178));
#880=DIRECTION('ref_axis',(0.,0.998264204001178,-0.0588946433039043));
#881=DIRECTION('',(0.,0.,1.));
#882=DIRECTION('center_axis',(0.,0.,1.));
#883=DIRECTION('ref_axis',(1.,0.,0.));
#884=DIRECTION('center_axis',(0.,0.,1.));
#885=DIRECTION('ref_axis',(1.,0.,0.));
#886=DIRECTION('center_axis',(0.,0.,-1.));
#887=DIRECTION('ref_axis',(1.,0.,0.));
#888=DIRECTION('center_axis',(0.,0.,1.));
#889=DIRECTION('ref_axis',(1.,0.,0.));
#890=DIRECTION('center_axis',(0.,0.0588946433039043,0.998264204001178));
#891=DIRECTION('ref_axis',(0.,0.998264204001178,-0.0588946433039043));
#892=DIRECTION('',(0.,0.,1.));
#893=DIRECTION('center_axis',(0.,0.,1.));
#894=DIRECTION('ref_axis',(1.,0.,0.));
#895=DIRECTION('center_axis',(0.,0.,1.));
#896=DIRECTION('ref_axis',(1.,0.,0.));
#897=DIRECTION('center_axis',(0.,0.,-1.));
#898=DIRECTION('ref_axis',(1.,0.,0.));
#899=DIRECTION('center_axis',(0.,0.,1.));
#900=DIRECTION('ref_axis',(1.,0.,0.));
#901=DIRECTION('center_axis',(0.,0.0588946433039043,0.998264204001178));
#902=DIRECTION('ref_axis',(0.,0.998264204001178,-0.0588946433039043));
#903=DIRECTION('',(0.,0.,1.));
#904=DIRECTION('center_axis',(0.,0.,1.));
#905=DIRECTION('ref_axis',(1.,0.,0.));
#906=DIRECTION('center_axis',(0.,0.,1.));
#907=DIRECTION('ref_axis',(1.,0.,0.));
#908=DIRECTION('center_axis',(0.,0.,-1.));
#909=DIRECTION('ref_axis',(1.,0.,0.));
#910=DIRECTION('center_axis',(0.,0.,1.));
#911=DIRECTION('ref_axis',(1.,0.,0.));
#912=DIRECTION('center_axis',(0.,0.0588946433039043,0.998264204001178));
#913=DIRECTION('ref_axis',(0.,0.998264204001178,-0.0588946433039043));
#914=DIRECTION('',(0.,0.,1.));
#915=DIRECTION('center_axis',(0.,0.,1.));
#916=DIRECTION('ref_axis',(1.,0.,0.));
#917=DIRECTION('center_axis',(0.,0.,1.));
#918=DIRECTION('ref_axis',(1.,0.,0.));
#919=DIRECTION('center_axis',(0.,0.,-1.));
#920=DIRECTION('ref_axis',(1.,0.,0.));
#921=DIRECTION('center_axis',(-2.52898183285913E-16,-1.,0.));
#922=DIRECTION('ref_axis',(0.,0.,-1.));
#923=DIRECTION('center_axis',(0.,0.,-1.));
#924=DIRECTION('ref_axis',(0.,1.,0.));
#925=DIRECTION('center_axis',(-2.52898183285913E-16,-1.,0.));
#926=DIRECTION('ref_axis',(-0.707106781186548,1.70803542250024E-16,-0.707106781186547));
#927=DIRECTION('center_axis',(-1.,0.,0.));
#928=DIRECTION('ref_axis',(0.,0.,1.));
#929=DIRECTION('center_axis',(2.52898183285913E-16,1.,0.));
#930=DIRECTION('ref_axis',(-0.707106781186548,1.78826020351227E-16,-0.707106781186547));
#931=DIRECTION('center_axis',(1.,-2.52898183285913E-16,-3.44789759200359E-16));
#932=DIRECTION('ref_axis',(0.,0.707106781186547,0.707106781186547));
#933=DIRECTION('center_axis',(-1.,0.,0.));
#934=DIRECTION('ref_axis',(0.,0.,1.));
#935=DIRECTION('',(-1.,2.52898183285913E-16,3.44789759200359E-16));
#936=DIRECTION('',(1.,-2.52898183285913E-16,-3.44789759200359E-16));
#937=DIRECTION('center_axis',(-2.52898183285913E-16,-1.,0.));
#938=DIRECTION('ref_axis',(0.,0.,-1.));
#939=DIRECTION('center_axis',(0.,0.,-1.));
#940=DIRECTION('ref_axis',(-1.,0.,0.));
#941=DIRECTION('center_axis',(2.52898183285913E-16,1.,0.));
#942=DIRECTION('ref_axis',(0.707106781186547,-1.78826020351227E-16,-0.707106781186548));
#943=DIRECTION('center_axis',(-2.52898183285913E-16,-1.,0.));
#944=DIRECTION('ref_axis',(0.707106781186547,-1.70803542250024E-16,-0.707106781186548));
#945=DIRECTION('center_axis',(-6.25477760352201E-15,1.58182189278813E-30,
1.));
#946=DIRECTION('ref_axis',(-0.707106781186547,0.707106781186547,-4.39625888431457E-15));
#947=DIRECTION('center_axis',(6.21724893790088E-15,0.,-1.));
#948=DIRECTION('ref_axis',(-1.,0.,-6.21724893790088E-15));
#949=DIRECTION('',(6.25477760352201E-15,-1.58182189278813E-30,-1.));
#950=DIRECTION('',(-6.25477760352201E-15,1.58182189278813E-30,1.));
#951=DIRECTION('center_axis',(-2.52898183285913E-16,-1.,0.));
#952=DIRECTION('ref_axis',(0.,0.,-1.));
#953=DIRECTION('center_axis',(1.,0.,-1.77635683940025E-15));
#954=DIRECTION('ref_axis',(-1.77635683940025E-15,0.,-1.));
#955=DIRECTION('center_axis',(2.52898183285913E-16,1.,0.));
#956=DIRECTION('ref_axis',(0.707106781186548,-1.78826020351227E-16,0.707106781186547));
#957=DIRECTION('center_axis',(-2.52898183285913E-16,-1.,0.));
#958=DIRECTION('ref_axis',(0.707106781186548,-1.70803542250024E-16,0.707106781186547));
#959=DIRECTION('center_axis',(-1.,2.52898183285913E-16,3.44789759200359E-16));
#960=DIRECTION('ref_axis',(0.,0.707106781186547,-0.707106781186547));
#961=DIRECTION('center_axis',(1.,0.,0.));
#962=DIRECTION('ref_axis',(0.,0.,-1.));
#963=DIRECTION('',(1.,-2.52898183285913E-16,-3.44789759200359E-16));
#964=DIRECTION('',(-1.,2.52898183285913E-16,3.44789759200359E-16));
#965=DIRECTION('center_axis',(-2.52898183285913E-16,-1.,0.));
#966=DIRECTION('ref_axis',(0.,0.,-1.));
#967=DIRECTION('center_axis',(-1.77635683940025E-15,0.,1.));
#968=DIRECTION('ref_axis',(1.,0.,1.77635683940025E-15));
#969=DIRECTION('center_axis',(2.52898183285913E-16,1.,0.));
#970=DIRECTION('ref_axis',(-0.707106781186548,1.78826020351227E-16,0.707106781186547));
#971=DIRECTION('center_axis',(-2.52898183285913E-16,-1.,0.));
#972=DIRECTION('ref_axis',(-0.707106781186548,1.70803542250024E-16,0.707106781186547));
#973=DIRECTION('center_axis',(3.12738880176104E-15,-7.90910946394073E-31,
-1.));
#974=DIRECTION('ref_axis',(0.707106781186547,0.707106781186547,1.88411095042053E-15));
#975=DIRECTION('',(-3.12738880176104E-15,7.90910946394073E-31,1.));
#976=DIRECTION('',(3.12738880176104E-15,-7.90910946394073E-31,-1.));
#977=DIRECTION('center_axis',(1.,0.,6.25477760352201E-15));
#978=DIRECTION('ref_axis',(-6.25477760352201E-15,0.,1.));
#979=DIRECTION('',(0.,-1.,0.));
#980=DIRECTION('',(6.25477760352201E-15,-8.19374408181699E-31,-1.));
#981=DIRECTION('',(0.,-1.,0.));
#982=DIRECTION('center_axis',(0.,-1.,0.));
#983=DIRECTION('ref_axis',(1.,0.,0.));
#984=DIRECTION('',(0.,-1.,0.));
#985=DIRECTION('center_axis',(0.,-1.,0.));
#986=DIRECTION('ref_axis',(1.,0.,0.));
#987=DIRECTION('',(0.,-1.,0.));
#988=DIRECTION('center_axis',(1.30999766917423E-16,1.,0.));
#989=DIRECTION('ref_axis',(1.,0.,0.));
#990=DIRECTION('center_axis',(-3.44789759200359E-16,0.,-1.));
#991=DIRECTION('ref_axis',(1.,-6.89579518400718E-16,-3.44789759200359E-16));
#992=DIRECTION('',(0.,-1.,0.));
#993=DIRECTION('',(1.,-6.89579518400718E-16,-3.44789759200359E-16));
#994=DIRECTION('center_axis',(0.,-1.,0.));
#995=DIRECTION('ref_axis',(0.,0.,-1.));
#996=DIRECTION('',(0.,-1.,0.));
#997=DIRECTION('center_axis',(1.30999766917423E-16,1.,0.));
#998=DIRECTION('ref_axis',(0.,0.,-1.));
#999=DIRECTION('',(0.,1.,0.));
#1000=DIRECTION('center_axis',(0.,-1.,-7.17157927067245E-33));
#1001=DIRECTION('ref_axis',(0.,7.17157927067246E-33,-1.));
#1002=DIRECTION('center_axis',(2.52898183285913E-16,1.,0.));
#1003=DIRECTION('ref_axis',(-1.,2.52898183285913E-16,0.));
#1004=DIRECTION('',(0.,0.,1.));
#1005=DIRECTION('',(1.,-2.52898183285913E-16,0.));
#1006=DIRECTION('',(0.,0.,-1.));
#1007=DIRECTION('',(-1.,2.52898183285913E-16,0.));
#1008=DIRECTION('center_axis',(0.,1.,0.));
#1009=DIRECTION('ref_axis',(-1.,0.,0.));
#1010=DIRECTION('',(-1.,0.,0.));
#1011=DIRECTION('center_axis',(-1.,0.,-3.12738880176104E-15));
#1012=DIRECTION('ref_axis',(3.12738880176104E-15,5.22629619779452E-48,-1.));
#1013=DIRECTION('',(0.,-1.,0.));
#1014=DIRECTION('',(-3.12738880176104E-15,4.09687204090853E-31,1.));
#1015=DIRECTION('center_axis',(0.,-1.,0.));
#1016=DIRECTION('ref_axis',(-1.,0.,-2.04964250700029E-15));
#1017=DIRECTION('',(0.,-1.,0.));
#1018=DIRECTION('center_axis',(1.30999766917423E-16,1.,0.));
#1019=DIRECTION('ref_axis',(-1.,0.,-2.04964250700029E-15));
#1020=DIRECTION('center_axis',(3.44789759200359E-16,0.,1.));
#1021=DIRECTION('ref_axis',(-1.,6.89579518400718E-16,3.44789759200359E-16));
#1022=DIRECTION('',(0.,-1.,0.));
#1023=DIRECTION('',(1.,-1.30999766917423E-16,-3.44789759200359E-16));
#1024=DIRECTION('center_axis',(0.,-1.,0.));
#1025=DIRECTION('ref_axis',(0.,0.,1.));
#1026=DIRECTION('center_axis',(1.30999766917423E-16,1.,0.));
#1027=DIRECTION('ref_axis',(0.,0.,1.));
#1028=DIRECTION('center_axis',(0.,0.,1.));
#1029=DIRECTION('ref_axis',(1.,0.,0.));
#1030=DIRECTION('',(-1.,1.30999766917423E-16,0.));
#1031=DIRECTION('',(0.,-1.,0.));
#1032=DIRECTION('',(1.,0.,0.));
#1033=DIRECTION('',(0.,1.,0.));
#1034=DIRECTION('',(-1.,1.30999766917423E-16,0.));
#1035=DIRECTION('center_axis',(0.,0.,1.));
#1036=DIRECTION('ref_axis',(0.707106781186548,0.707106781186547,0.));
#1037=DIRECTION('center_axis',(0.,0.,-1.));
#1038=DIRECTION('ref_axis',(0.707106781186548,0.707106781186547,0.));
#1039=DIRECTION('',(0.,0.,-1.));
#1040=DIRECTION('center_axis',(0.,0.0588946433039043,0.998264204001178));
#1041=DIRECTION('ref_axis',(8.31221927955909E-16,0.998264204001178,-0.0588946433039043));
#1042=DIRECTION('center_axis',(0.,0.,1.));
#1043=DIRECTION('ref_axis',(1.,0.,0.));
#1044=DIRECTION('center_axis',(0.,0.,-1.));
#1045=DIRECTION('ref_axis',(-0.707106781186547,0.707106781186547,0.));
#1046=DIRECTION('',(0.,-1.,0.));
#1047=DIRECTION('center_axis',(0.,0.,-1.));
#1048=DIRECTION('ref_axis',(-0.707106781186547,-0.707106781186548,0.));
#1049=DIRECTION('',(1.,-3.03477819943095E-16,0.));
#1050=DIRECTION('center_axis',(0.,0.,-1.));
#1051=DIRECTION('ref_axis',(0.707106781186547,-0.707106781186547,0.));
#1052=DIRECTION('',(1.30999766917423E-16,1.,0.));
#1053=DIRECTION('center_axis',(0.,0.,-1.));
#1054=DIRECTION('ref_axis',(1.,0.,0.));
#1055=DIRECTION('center_axis',(0.,0.,-1.));
#1056=DIRECTION('ref_axis',(1.,0.,0.));
#1057=DIRECTION('center_axis',(0.,0.,-1.));
#1058=DIRECTION('ref_axis',(1.,0.,0.));
#1059=DIRECTION('center_axis',(0.,0.,-1.));
#1060=DIRECTION('ref_axis',(1.,0.,0.));
#1061=DIRECTION('',(1.,-1.30999766917423E-16,0.));
#1062=DIRECTION('',(0.,-1.,0.));
#1063=DIRECTION('',(-1.,0.,0.));
#1064=DIRECTION('',(0.,1.,0.));
#1065=DIRECTION('center_axis',(0.,0.,1.));
#1066=DIRECTION('ref_axis',(-0.707106781186547,0.707106781186547,0.));
#1067=DIRECTION('center_axis',(0.,0.0588946433039043,0.998264204001178));
#1068=DIRECTION('ref_axis',(0.,0.998264204001178,-0.0588946433039043));
#1069=DIRECTION('',(0.,0.,1.));
#1070=DIRECTION('center_axis',(0.,0.,1.));
#1071=DIRECTION('ref_axis',(0.707106781186547,-0.707106781186547,0.));
#1072=DIRECTION('',(0.,0.,-1.));
#1073=DIRECTION('center_axis',(0.,0.0588946433039043,0.998264204001178));
#1074=DIRECTION('ref_axis',(0.,-0.998264204001178,0.0588946433039043));
#1075=DIRECTION('',(0.,0.,1.));
#1076=DIRECTION('center_axis',(0.,0.0588946433039043,0.998264204001178));
#1077=DIRECTION('ref_axis',(0.,0.998264204001178,-0.0588946433039043));
#1078=DIRECTION('',(1.30772378046161E-16,0.998264204001178,-0.0588946433039043));
#1079=DIRECTION('',(1.,-3.03477819943095E-16,1.79042961618345E-17));
#1080=DIRECTION('center_axis',(0.,0.0588946433039043,0.998264204001178));
#1081=DIRECTION('ref_axis',(8.31221927955909E-16,-0.998264204001178,0.0588946433039043));
#1082=DIRECTION('',(0.,-0.998264204001178,0.0588946433039043));
#1083=DIRECTION('center_axis',(-3.03477819943095E-16,-1.,0.));
#1084=DIRECTION('ref_axis',(1.,-3.03477819943095E-16,0.));
#1085=DIRECTION('',(0.,0.,1.));
#1086=DIRECTION('center_axis',(0.,0.,1.));
#1087=DIRECTION('ref_axis',(-0.707106781186547,-0.707106781186548,0.));
#1088=DIRECTION('',(0.,0.,-1.));
#1089=DIRECTION('center_axis',(1.,0.,0.));
#1090=DIRECTION('ref_axis',(0.,1.,0.));
#1091=DIRECTION('',(0.,0.,1.));
#1092=DIRECTION('',(0.,0.,1.));
#1093=DIRECTION('center_axis',(0.,1.,0.));
#1094=DIRECTION('ref_axis',(-1.,0.,0.));
#1095=DIRECTION('',(0.,0.,1.));
#1096=DIRECTION('center_axis',(-1.,0.,0.));
#1097=DIRECTION('ref_axis',(0.,-1.,0.));
#1098=DIRECTION('',(0.,0.,1.));
#1099=DIRECTION('center_axis',(-1.30999766917423E-16,-1.,0.));
#1100=DIRECTION('ref_axis',(1.,-1.30999766917423E-16,0.));
#1101=DIRECTION('center_axis',(-1.,0.,0.));
#1102=DIRECTION('ref_axis',(0.,-1.,0.));
#1103=DIRECTION('center_axis',(0.,0.,1.));
#1104=DIRECTION('ref_axis',(1.,0.,0.));
#1105=DIRECTION('',(0.,0.,-1.));
#1106=DIRECTION('center_axis',(0.,0.,1.));
#1107=DIRECTION('ref_axis',(1.,0.,0.));
#1108=DIRECTION('',(0.,0.,-1.));
#1109=DIRECTION('center_axis',(0.,0.,1.));
#1110=DIRECTION('ref_axis',(1.,0.,0.));
#1111=DIRECTION('',(0.,0.,-1.));
#1112=DIRECTION('center_axis',(0.,0.,1.));
#1113=DIRECTION('ref_axis',(1.,0.,0.));
#1114=DIRECTION('',(0.,0.,-1.));
#1115=DIRECTION('center_axis',(1.,-1.30999766917423E-16,0.));
#1116=DIRECTION('ref_axis',(1.30999766917423E-16,1.,0.));
#1117=CARTESIAN_POINT('',(0.,0.,0.));
#1118=CARTESIAN_POINT('Origin',(-38.9,-28.9,0.));
#1119=CARTESIAN_POINT('',(-41.9,-28.9,3.70501474926254));
#1120=CARTESIAN_POINT('Origin',(-38.9,-28.9,3.70501474926254));
#1121=CARTESIAN_POINT('',(-41.9,-28.9,10.));
#1122=CARTESIAN_POINT('',(-41.9,-28.9,0.));
#1123=CARTESIAN_POINT('Origin',(-38.9,-28.9,10.));
#1124=CARTESIAN_POINT('Origin',(-38.9,-28.9,10.));
#1125=CARTESIAN_POINT('',(-40.6,-28.9,10.));
#1126=CARTESIAN_POINT('Origin',(-38.9,-28.9,10.));
#1127=CARTESIAN_POINT('Origin',(-38.9,28.9,0.));
#1128=CARTESIAN_POINT('',(-41.9,28.9,0.294985250737462));
#1129=CARTESIAN_POINT('Origin',(-38.9,28.9,0.294985250737462));
#1130=CARTESIAN_POINT('',(-41.9,28.9,10.));
#1131=CARTESIAN_POINT('',(-41.9,28.9,0.));
#1132=CARTESIAN_POINT('Origin',(-38.9,28.9,10.));
#1133=CARTESIAN_POINT('Origin',(-38.9,28.9,10.));
#1134=CARTESIAN_POINT('',(-40.6,28.9,10.));
#1135=CARTESIAN_POINT('Origin',(-38.9,28.9,10.));
#1136=CARTESIAN_POINT('Origin',(38.9,-28.9,0.));
#1137=CARTESIAN_POINT('',(35.9,-28.9,3.70501474926254));
#1138=CARTESIAN_POINT('Origin',(38.9,-28.9,3.70501474926254));
#1139=CARTESIAN_POINT('',(35.9,-28.9,10.));
#1140=CARTESIAN_POINT('',(35.9,-28.9,0.));
#1141=CARTESIAN_POINT('Origin',(38.9,-28.9,10.));
#1142=CARTESIAN_POINT('Origin',(38.9,-28.9,10.));
#1143=CARTESIAN_POINT('',(37.2,-28.9,10.));
#1144=CARTESIAN_POINT('Origin',(38.9,-28.9,10.));
#1145=CARTESIAN_POINT('Origin',(38.9,28.9,0.));
#1146=CARTESIAN_POINT('',(35.9,28.9,0.294985250737462));
#1147=CARTESIAN_POINT('Origin',(38.9,28.9,0.294985250737462));
#1148=CARTESIAN_POINT('',(35.9,28.9,10.));
#1149=CARTESIAN_POINT('',(35.9,28.9,0.));
#1150=CARTESIAN_POINT('Origin',(38.9,28.9,10.));
#1151=CARTESIAN_POINT('Origin',(38.9,28.9,10.));
#1152=CARTESIAN_POINT('',(37.2,28.9,10.));
#1153=CARTESIAN_POINT('Origin',(38.9,28.9,10.));
#1154=CARTESIAN_POINT('Origin',(18.155,31.4,10.85));
#1155=CARTESIAN_POINT('',(12.405,33.9,10.85));
#1156=CARTESIAN_POINT('',(14.905,31.4,10.85));
#1157=CARTESIAN_POINT('Origin',(12.405,31.4,10.85));
#1158=CARTESIAN_POINT('',(18.155,31.4,7.60000000000004));
#1159=CARTESIAN_POINT('Origin',(18.155,31.4,10.85));
#1160=CARTESIAN_POINT('',(18.155,33.9,5.10000000000005));
#1161=CARTESIAN_POINT('Origin',(18.155,31.4,5.10000000000005));
#1162=CARTESIAN_POINT('Origin',(18.155,33.9,10.85));
#1163=CARTESIAN_POINT('Origin',(31.0275,31.4,5.10000000000004));
#1164=CARTESIAN_POINT('',(24.595,31.4,7.60000000000004));
#1165=CARTESIAN_POINT('',(24.595,33.9,5.10000000000004));
#1166=CARTESIAN_POINT('Origin',(24.595,31.4,5.10000000000004));
#1167=CARTESIAN_POINT('',(31.0275,33.9,5.10000000000004));
#1168=CARTESIAN_POINT('',(31.0275,31.4,7.60000000000004));
#1169=CARTESIAN_POINT('Origin',(24.595,31.4,10.85));
#1170=CARTESIAN_POINT('',(27.845,31.4,10.85));
#1171=CARTESIAN_POINT('',(30.345,33.9,10.85));
#1172=CARTESIAN_POINT('Origin',(30.345,31.4,10.85));
#1173=CARTESIAN_POINT('Origin',(24.595,33.9,10.85));
#1174=CARTESIAN_POINT('Origin',(24.595,31.4,10.85));
#1175=CARTESIAN_POINT('Origin',(30.345,31.4,5.42499999999999));
#1176=CARTESIAN_POINT('',(27.845,31.4,11.56));
#1177=CARTESIAN_POINT('',(30.345,33.9,11.5600000000001));
#1178=CARTESIAN_POINT('Origin',(30.345,31.4,11.5600000000001));
#1179=CARTESIAN_POINT('',(30.345,33.9,5.42499999999999));
#1180=CARTESIAN_POINT('',(27.845,31.4,5.42499999999997));
#1181=CARTESIAN_POINT('Origin',(24.595,31.4,11.56));
#1182=CARTESIAN_POINT('',(24.595,31.4,14.81));
#1183=CARTESIAN_POINT('',(24.595,33.9,17.31));
#1184=CARTESIAN_POINT('Origin',(24.595,31.4,17.31));
#1185=CARTESIAN_POINT('Origin',(24.595,33.9,11.56));
#1186=CARTESIAN_POINT('Origin',(24.595,31.4,11.56));
#1187=CARTESIAN_POINT('Origin',(34.2475,31.4,17.31));
#1188=CARTESIAN_POINT('',(18.155,31.4,14.81));
#1189=CARTESIAN_POINT('',(18.155,33.9,17.31));
#1190=CARTESIAN_POINT('Origin',(18.155,31.4,17.31));
#1191=CARTESIAN_POINT('',(34.2475,33.9,17.31));
#1192=CARTESIAN_POINT('',(34.2475,31.4,14.81));
#1193=CARTESIAN_POINT('Origin',(18.155,31.4,11.56));
#1194=CARTESIAN_POINT('',(14.905,31.4,11.56));
#1195=CARTESIAN_POINT('',(12.405,33.9,11.56));
#1196=CARTESIAN_POINT('Origin',(12.405,31.4,11.56));
#1197=CARTESIAN_POINT('Origin',(18.155,33.9,11.56));
#1198=CARTESIAN_POINT('Origin',(18.155,31.4,11.56));
#1199=CARTESIAN_POINT('Origin',(12.405,31.4,5.77999999999996));
#1200=CARTESIAN_POINT('',(12.405,33.9,5.77999999999996));
#1201=CARTESIAN_POINT('',(14.905,31.4,5.77999999999997));
#1202=CARTESIAN_POINT('Origin',(27.845,33.9,10.85));
#1203=CARTESIAN_POINT('',(27.845,23.9,10.85));
#1204=CARTESIAN_POINT('',(27.845,33.9,10.85));
#1205=CARTESIAN_POINT('',(27.845,23.9,11.56));
#1206=CARTESIAN_POINT('',(27.845,23.9,9.42500000000021));
#1207=CARTESIAN_POINT('',(27.845,33.9,11.56));
#1208=CARTESIAN_POINT('Origin',(24.595,33.9,10.85));
#1209=CARTESIAN_POINT('',(24.595,15.9,7.60000000000004));
#1210=CARTESIAN_POINT('',(24.595,33.9,7.60000000000004));
#1211=CARTESIAN_POINT('',(26.1570499351812,15.9,8.));
#1212=CARTESIAN_POINT('Origin',(24.595,15.9,10.85));
#1213=CARTESIAN_POINT('',(26.1570499351812,23.9,8.));
#1214=CARTESIAN_POINT('',(26.1570499351812,33.9,8.));
#1215=CARTESIAN_POINT('Origin',(24.595,23.9,10.85));
#1216=CARTESIAN_POINT('Origin',(18.155,33.9,7.60000000000004));
#1217=CARTESIAN_POINT('',(18.155,15.9,7.60000000000004));
#1218=CARTESIAN_POINT('',(18.155,33.9,7.60000000000004));
#1219=CARTESIAN_POINT('',(18.155,15.9,7.60000000000004));
#1220=CARTESIAN_POINT('Origin',(18.155,33.9,10.85));
#1221=CARTESIAN_POINT('',(14.905,23.9,10.85));
#1222=CARTESIAN_POINT('',(14.905,33.9,10.85));
#1223=CARTESIAN_POINT('',(16.5929500648187,23.9,8.));
#1224=CARTESIAN_POINT('Origin',(18.155,23.9,10.85));
#1225=CARTESIAN_POINT('',(16.5929500648187,15.9,8.));
#1226=CARTESIAN_POINT('',(16.5929500648187,33.9,8.));
#1227=CARTESIAN_POINT('Origin',(18.155,15.9,10.85));
#1228=CARTESIAN_POINT('Origin',(43.9,33.9,0.));
#1229=CARTESIAN_POINT('',(38.9,33.9,0.));
#1230=CARTESIAN_POINT('',(38.9,33.9,19.6));
#1231=CARTESIAN_POINT('',(38.9,33.9,0.));
#1232=CARTESIAN_POINT('',(-38.9,33.9,0.));
#1233=CARTESIAN_POINT('',(-43.9,33.9,0.));
#1234=CARTESIAN_POINT('',(-38.9,33.9,19.6));
#1235=CARTESIAN_POINT('',(-38.9,33.9,0.));
#1236=CARTESIAN_POINT('',(-43.9,33.9,19.6));
#1237=CARTESIAN_POINT('Origin',(21.375,15.9,11.205));
#1238=CARTESIAN_POINT('',(10.6875,15.9,8.));
#1239=CARTESIAN_POINT('Origin',(14.905,33.9,11.56));
#1240=CARTESIAN_POINT('',(14.905,23.9,11.56));
#1241=CARTESIAN_POINT('',(14.905,33.9,11.56));
#1242=CARTESIAN_POINT('',(14.905,23.9,9.78000000000009));
#1243=CARTESIAN_POINT('Origin',(18.155,33.9,11.56));
#1244=CARTESIAN_POINT('',(18.155,23.9,14.81));
#1245=CARTESIAN_POINT('',(18.155,33.9,14.81));
#1246=CARTESIAN_POINT('Origin',(18.155,23.9,11.56));
#1247=CARTESIAN_POINT('Origin',(24.595,33.9,14.81));
#1248=CARTESIAN_POINT('',(24.595,23.9,14.81));
#1249=CARTESIAN_POINT('',(24.595,33.9,14.81));
#1250=CARTESIAN_POINT('',(-4.65250000000001,23.9,14.8100000000001));
#1251=CARTESIAN_POINT('Origin',(24.595,33.9,11.56));
#1252=CARTESIAN_POINT('Origin',(24.595,23.9,11.56));
#1253=CARTESIAN_POINT('Origin',(0.,0.,8.));
#1254=CARTESIAN_POINT('',(-33.9,23.9,8.));
#1255=CARTESIAN_POINT('',(-16.95,23.9,8.));
#1256=CARTESIAN_POINT('',(-33.9,-23.9,8.));
#1257=CARTESIAN_POINT('',(-33.9,-11.95,8.));
#1258=CARTESIAN_POINT('',(33.9,-23.9,8.));
#1259=CARTESIAN_POINT('',(16.95,-23.9,8.));
#1260=CARTESIAN_POINT('',(33.9,23.9,8.));
#1261=CARTESIAN_POINT('',(33.9,11.95,8.));
#1262=CARTESIAN_POINT('',(-16.95,23.9,8.));
#1263=CARTESIAN_POINT('Origin',(38.9,28.9,0.));
#1264=CARTESIAN_POINT('',(43.9,28.9,19.6));
#1265=CARTESIAN_POINT('Origin',(38.9,28.9,19.6));
#1266=CARTESIAN_POINT('',(43.9,28.9,0.294985250737464));
#1267=CARTESIAN_POINT('',(43.9,28.9,0.));
#1268=CARTESIAN_POINT('Origin',(38.9,28.9,0.294985250737464));
#1269=CARTESIAN_POINT('Origin',(0.,0.,19.6));
#1270=CARTESIAN_POINT('',(-43.9,28.9,19.6));
#1271=CARTESIAN_POINT('Origin',(-38.9,28.9,19.6));
#1272=CARTESIAN_POINT('',(-43.9,-28.9,19.6));
#1273=CARTESIAN_POINT('',(-43.9,-33.9,19.6));
#1274=CARTESIAN_POINT('',(-38.9,-33.9,19.6));
#1275=CARTESIAN_POINT('Origin',(-38.9,-28.9,19.6));
#1276=CARTESIAN_POINT('',(38.9,-33.9,19.6));
#1277=CARTESIAN_POINT('',(43.9,-33.9,19.6));
#1278=CARTESIAN_POINT('',(43.9,-28.9,19.6));
#1279=CARTESIAN_POINT('Origin',(38.9,-28.9,19.6));
#1280=CARTESIAN_POINT('',(43.9,33.9,19.6));
#1281=CARTESIAN_POINT('',(37.2,-28.9,19.6));
#1282=CARTESIAN_POINT('Origin',(38.9,-28.9,19.6));
#1283=CARTESIAN_POINT('',(-40.6,-28.9,19.6));
#1284=CARTESIAN_POINT('Origin',(-38.9,-28.9,19.6));
#1285=CARTESIAN_POINT('',(-40.6,28.9,19.6));
#1286=CARTESIAN_POINT('Origin',(-38.9,28.9,19.6));
#1287=CARTESIAN_POINT('',(37.2,28.9,19.6));
#1288=CARTESIAN_POINT('Origin',(38.9,28.9,19.6));
#1289=CARTESIAN_POINT('',(-33.9,23.9,19.6));
#1290=CARTESIAN_POINT('',(33.9,23.9,19.6));
#1291=CARTESIAN_POINT('',(-33.9,23.9,19.6));
#1292=CARTESIAN_POINT('',(33.9,-23.9,19.6));
#1293=CARTESIAN_POINT('',(33.9,23.9,19.6));
#1294=CARTESIAN_POINT('',(-33.9,-23.9,19.6));
#1295=CARTESIAN_POINT('',(33.9,-23.9,19.6));
#1296=CARTESIAN_POINT('',(-33.9,-23.9,19.6));
#1297=CARTESIAN_POINT('Origin',(-38.9,28.9,0.));
#1298=CARTESIAN_POINT('',(-43.9,28.9,0.294985250737463));
#1299=CARTESIAN_POINT('Origin',(-38.9,28.9,0.294985250737463));
#1300=CARTESIAN_POINT('',(-43.9,28.9,0.));
#1301=CARTESIAN_POINT('Origin',(38.9,-28.9,0.));
#1302=CARTESIAN_POINT('',(38.9,-33.9,4.));
#1303=CARTESIAN_POINT('',(38.9,-33.9,0.));
#1304=CARTESIAN_POINT('',(43.9,-28.9,3.70501474926254));
#1305=CARTESIAN_POINT('Origin',(38.9,-28.9,3.70501474926254));
#1306=CARTESIAN_POINT('',(43.9,-28.9,0.));
#1307=CARTESIAN_POINT('Origin',(43.9,-33.9,4.));
#1308=CARTESIAN_POINT('',(43.9,-33.7824151715646,3.99306284198021));
#1309=CARTESIAN_POINT('',(-38.9,-33.9,4.));
#1310=CARTESIAN_POINT('',(-3.58085923236718E-17,-33.9,4.));
#1311=CARTESIAN_POINT('',(-43.9,-28.9,3.70501474926254));
#1312=CARTESIAN_POINT('Origin',(-38.9,-28.9,3.70501474926254));
#1313=CARTESIAN_POINT('',(-43.9,8.84909110248971E-15,2.));
#1314=CARTESIAN_POINT('Origin',(-43.9,-33.9,0.));
#1315=CARTESIAN_POINT('',(-38.9,-33.9,0.));
#1316=CARTESIAN_POINT('Origin',(-38.9,-28.9,0.));
#1317=CARTESIAN_POINT('',(-43.9,-28.9,0.));
#1318=CARTESIAN_POINT('Origin',(-33.9,-23.9,8.));
#1319=CARTESIAN_POINT('',(-33.9,23.9,8.));
#1320=CARTESIAN_POINT('',(-33.9,-23.9,8.));
#1321=CARTESIAN_POINT('Origin',(33.9,-23.9,8.));
#1322=CARTESIAN_POINT('',(33.9,-23.9,8.));
#1323=CARTESIAN_POINT('Origin',(33.9,23.9,8.));
#1324=CARTESIAN_POINT('',(33.9,23.9,8.));
#1325=CARTESIAN_POINT('Origin',(-33.9,23.9,8.));
#1326=CARTESIAN_POINT('Origin',(-43.9,33.9,0.));
#1327=CARTESIAN_POINT('Origin',(38.9,28.9,0.));
#1328=CARTESIAN_POINT('',(37.2,28.9,0.));
#1329=CARTESIAN_POINT('Origin',(-38.9,-28.9,0.));
#1330=CARTESIAN_POINT('',(-40.6,-28.9,0.));
#1331=CARTESIAN_POINT('Origin',(-38.9,28.9,0.));
#1332=CARTESIAN_POINT('',(-40.6,28.9,0.));
#1333=CARTESIAN_POINT('Origin',(38.9,-28.9,0.));
#1334=CARTESIAN_POINT('',(37.2,-28.9,0.));
#1335=CARTESIAN_POINT('Origin',(43.9,-33.9,0.));
#1336=UNCERTAINTY_MEASURE_WITH_UNIT(LENGTH_MEASURE(0.01),#1340,
'DISTANCE_ACCURACY_VALUE',
'Maximum model space distance between geometric entities at asserted c
onnectivities');
#1337=UNCERTAINTY_MEASURE_WITH_UNIT(LENGTH_MEASURE(0.01),#1340,
'DISTANCE_ACCURACY_VALUE',
'Maximum model space distance between geometric entities at asserted c
onnectivities');
#1338=(
GEOMETRIC_REPRESENTATION_CONTEXT(3)
GLOBAL_UNCERTAINTY_ASSIGNED_CONTEXT((#1336))
GLOBAL_UNIT_ASSIGNED_CONTEXT((#1340,#1342,#1343))
REPRESENTATION_CONTEXT('','3D')
);
#1339=(
GEOMETRIC_REPRESENTATION_CONTEXT(3)
GLOBAL_UNCERTAINTY_ASSIGNED_CONTEXT((#1337))
GLOBAL_UNIT_ASSIGNED_CONTEXT((#1340,#1342,#1343))
REPRESENTATION_CONTEXT('','3D')
);
#1340=(
LENGTH_UNIT()
NAMED_UNIT(*)
SI_UNIT(.MILLI.,.METRE.)
);
#1341=(
LENGTH_UNIT()
NAMED_UNIT(*)
SI_UNIT($,.METRE.)
);
#1342=(
NAMED_UNIT(*)
PLANE_ANGLE_UNIT()
SI_UNIT($,.RADIAN.)
);
#1343=(
NAMED_UNIT(*)
SI_UNIT($,.STERADIAN.)
SOLID_ANGLE_UNIT()
);
#1344=SHAPE_DEFINITION_REPRESENTATION(#1345,#1346);
#1345=PRODUCT_DEFINITION_SHAPE('',$,#1348);
#1346=SHAPE_REPRESENTATION('',(#784),#1338);
#1347=PRODUCT_DEFINITION_CONTEXT('part definition',#1352,'design');
#1348=PRODUCT_DEFINITION('Base','Base',#1349,#1347);
#1349=PRODUCT_DEFINITION_FORMATION('',$,#1354);
#1350=PRODUCT_RELATED_PRODUCT_CATEGORY('Base','Base',(#1354));
#1351=APPLICATION_PROTOCOL_DEFINITION('international standard',
'automotive_design',2009,#1352);
#1352=APPLICATION_CONTEXT(
'Core Data for Automotive Mechanical Design Process');
#1353=PRODUCT_CONTEXT('part definition',#1352,'mechanical');
#1354=PRODUCT('Base','Base',$,(#1353));
#1355=PRESENTATION_STYLE_ASSIGNMENT((#1357));
#1356=PRESENTATION_STYLE_ASSIGNMENT((#1358));
#1357=SURFACE_STYLE_USAGE(.BOTH.,#1359);
#1358=SURFACE_STYLE_USAGE(.BOTH.,#1360);
#1359=SURFACE_SIDE_STYLE('',(#1361));
#1360=SURFACE_SIDE_STYLE('',(#1362));
#1361=SURFACE_STYLE_FILL_AREA(#1363);
#1362=SURFACE_STYLE_FILL_AREA(#1364);
#1363=FILL_AREA_STYLE('Steel - Satin',(#1365));
#1364=FILL_AREA_STYLE('Plastic - Matte (Green)',(#1366));
#1365=FILL_AREA_STYLE_COLOUR('Steel - Satin',#1367);
#1366=FILL_AREA_STYLE_COLOUR('Plastic - Matte (Green)',#1368);
#1367=COLOUR_RGB('Steel - Satin',0.627450980392157,0.627450980392157,0.627450980392157);
#1368=COLOUR_RGB('Plastic - Matte (Green)',0.266666666666667,0.588235294117647,
0.282352941176471);
ENDSEC;
END-ISO-10303-21;
