<?xml version="1.0" encoding="UTF-8"?>
<svg xmlns="http://www.w3.org/2000/svg" viewBox="0 0 512 512" width="512" height="512">
<path d="M240.46 0.08C250.82 0.08 261.18 0.08 271.54 0.08C273.77 1.04 281.4 1.79 282.75 0.57C284.39 2.05 295.03 3.05 297.75 3.02C299.37 3 301.33 4.13 302.83 4.36C307.39 5.06 312.49 5.66 317.23 6.67C321.4 7.56 325.45 9.53 329.67 10.34C330.48 10.49 330.98 11.3 331.77 11.48C339.43 13.3 346.81 16.54 354.31 19.06C356.3 19.73 361.48 23.67 362.75 22.56C364.76 25.3 369.01 25.94 371.83 27.51C375.97 29.82 380.72 32.33 384.73 35.12C400.04 45.78 415.8 56.85 428.28 71.61C433.58 77.87 439.23 84.82 444.03 91.34C447.77 96.41 450.62 102.44 454.27 107.67C456.92 111.45 460.19 122.85 463.44 125.25C462.69 126.36 464.38 128.23 465.11 129.69C466.19 131.85 469.6 140.63 470.12 142.84C473.17 155.89 479.06 169.34 479.53 182.25C479.57 183.43 480.73 184.66 480.85 185.77C481.23 189.41 481.26 193.45 481.53 196.75C481.66 198.32 482.83 200.26 483 201.77C483.24 203.83 481.83 204.48 483.45 206.25C480.91 209.02 484.51 215.68 484.09 218.75C483.12 225.89 482.45 243.71 483.5 250.75C483.76 252.51 484.21 253.9 484.14 255.75C484.08 257.45 483.26 258.59 483.19 260.25C483.05 263.52 481.75 273.9 483.45 275.75C481.83 277.88 483.13 279 483.08 281.25C483.02 284.17 480.22 288.31 482.44 290.75C480.83 292.52 480.95 297.24 480.98 299.75C481 301.73 479.58 303.7 479.53 305.75C479.45 309.37 478.97 313.9 478.17 317.66C477.92 318.79 476.84 320.11 476.61 321.34C474.26 333.68 469.23 346.89 463.03 357.67C455.35 371 439.28 386.4 426.28 394.21C421.84 396.87 417.57 399.14 412.83 401.47C410.29 402.71 406.48 403.03 404.75 405.45C404.51 405.29 404.61 404.82 404.25 404.76C404.14 404.74 403.34 405.56 403.17 405.67C401.83 406.54 400.11 406.4 398.75 407C396.72 410.5 398.14 424.09 398.14 428.75C398.14 445.15 400.68 472.36 395.11 486.31C391.56 495.21 383.03 503.53 374.3 508.11C371.86 509.38 367.84 510.8 365.23 511.34C363.81 511.64 362.97 511.04 361.57 511.92C357.54 511.92 353.5 511.92 349.46 511.92C348 510.94 346.85 511.63 345.34 511.2C341.05 509.97 335.48 507.56 331.71 505.26C329.79 504.09 327.95 500.32 325.75 500.65C324.62 497.78 321.73 495.72 319.74 493.3C318.39 491.67 315.4 485.28 314.88 483.16C312.01 471.58 312.92 458.25 312.92 445.75C312.92 440.58 312.92 435.42 312.92 430.25C312.92 428.27 313.6 425.61 311.75 424.5C309.74 424.67 309.26 424.67 307.25 424.5C304.58 424.83 301.92 425.17 299.25 425.5C300.41 432.56 299.43 440.57 299.43 447.75C299.43 466.07 299.89 480.72 289.9 495.7C287.71 498.98 281.69 504.34 278.28 506.18C275.62 507.63 271.92 508.33 269.75 510.45C268.63 509.59 263.64 510.87 262.06 511.92C258.02 511.92 253.98 511.92 249.94 511.92C247.69 510.4 245.27 511.01 242.84 510.18C238.35 508.64 228.64 503.7 225.48 499.79C211.78 482.85 212.57 470.1 212.57 448.25C212.57 440.92 211.57 432.72 212.75 425.5C210.08 425.17 207.42 424.83 204.75 424.5C202.74 424.67 202.26 424.67 200.25 424.5C197.92 425.9 199.08 432.19 199.08 434.75C199.08 444.75 199.08 454.75 199.08 464.75C199.08 472.27 198.71 479.92 195.65 486.63C194.79 488.52 193.57 491.82 192.27 493.3C191.58 494.09 188.39 496.44 188.31 497.52C188.28 497.79 188.61 497.98 188.65 498.25C185.36 499.5 183.27 503.33 180.29 505.28C177.21 507.29 170.16 510.55 166.66 511.2C165.09 511.49 163.97 510.93 162.53 511.92C158.49 511.92 154.46 511.92 150.42 511.92C148.15 510.57 145.27 510.88 142.84 510.09C135.78 507.82 128.78 502.77 123.85 497.26C120.32 493.32 117.42 487.95 115.62 483.23C113.23 476.98 113.86 469.27 113.86 462.25C113.86 450.25 113.86 438.25 113.86 426.25C113.86 420.49 115.21 412.72 113.5 407.25C112.32 406.41 108.11 404.84 107.25 405.45C105.59 403.22 95.55 399.68 92.68 398.21C84.15 393.83 77.06 387.58 69.31 381.9C62.89 377.19 52.57 364.01 48.82 357.28C47.05 354.12 45.72 348.03 42.57 345.75C43.59 344.21 40.45 340.39 39.88 338.16C38.71 333.61 35.98 327.64 35.34 323.16C34.9 320.15 34.26 314.94 32.57 312.75C34.17 310.97 31.99 308.98 32.02 306.75C32.05 304.06 30.99 292.32 29.55 290.75C31.63 288.48 29.25 284.51 28.98 281.75C28.77 279.49 30.32 278.19 28.56 276.25C30.45 274.18 28.76 260.86 27.96 257.75C27.17 254.65 28.5 250.95 28.5 247.75C28.5 238.76 28.94 229.56 27.86 220.75C27.4 217 31.2 208.15 28.56 205.25C30.1 203.56 30.85 189.31 31.34 185.82C31.99 181.11 32.86 176.36 33.68 171.77C33.95 170.26 35.22 168.79 35.48 167.23C35.97 164.39 36.16 161.66 36.91 158.84C38.37 153.41 40.64 148.27 41.87 142.84C42.45 140.28 45.63 132.16 46.88 129.68C47.62 128.24 49.29 126.35 48.56 125.25C51.93 122.63 53.55 114.51 56.23 110.77C58.98 106.92 60.62 101.47 63.75 97.7C66.78 94.06 69.65 89.82 72.11 85.83C74.19 82.45 77.67 78.66 80.21 75.61C80.82 74.88 81.96 74.61 82.5 73.75C86.34 67.68 93.13 61.73 98.91 57.17C103.42 53.61 106.84 49.33 111.34 46.12C118.39 41.1 125.76 36.88 132.67 31.71C133.38 31.17 134.36 31.28 135.11 30.91C136.13 30.41 136.77 29.28 137.69 28.79C140.26 27.43 143.46 26.33 146.16 24.91C157.01 19.21 168.52 14.66 180.66 11.38C183.87 10.51 187.03 8.37 190.34 7.82C193.57 7.28 196.77 6.69 199.84 5.81C204.15 4.58 211.04 3.55 215.25 3.47C217.02 3.43 219.01 1.99 220.75 2.02C223.31 2.07 228.27 2.36 230.25 0.55C231.72 1.9 238.1 1.09 240.46 0.08ZM149.87 128.23C139.95 129.26 130.05 132.21 121.4 137.19C79.94 161.07 72.64 219.29 108.56 251.7C115.86 258.28 124.25 263.06 133.46 266.3C143.28 269.76 153.83 270.86 164.24 269.85C172.83 269.03 181.43 266.29 189.01 262.29C233.11 239.01 241.16 178.27 202.95 145.31C195.83 139.18 187.8 134.82 179 131.73C169.85 128.52 159.57 127.22 149.87 128.23ZM348.89 128.23C338.95 129.3 329.11 132.24 320.45 137.23C279.86 160.61 272.11 216.54 305.56 249.69C313.21 257.27 322.42 262.68 332.46 266.3C342.22 269.82 352.89 270.82 363.25 269.87C404.74 266.02 435.18 222.94 424.76 182.45C418.57 158.42 401.26 140.03 378.04 131.7C368.97 128.44 358.53 127.2 348.89 128.23ZM257.25 355.73C260.72 361.51 264.01 366.64 270.89 368.8C284.2 372.98 297.37 363.24 298.64 349.75C299.31 342.58 295.35 335.27 289.63 331.13C287.74 329.76 285.1 329.36 283.35 327.92C281 325.99 279.9 322.43 277.43 320.31C270.34 314.23 260.42 312.1 251.27 313.14C244.85 313.88 237.83 316.84 233.27 321.52C231.47 323.38 230.52 326.3 228.66 327.93C226.9 329.48 224.05 329.9 222.09 331.36C214.94 336.69 211.67 345.99 214.19 354.62C217.83 367.03 232.07 372.83 243.6 367.79C249.2 365.34 251.8 360.65 254.75 355.73C255.58 355.73 256.42 355.73 257.25 355.73Z" fill="#ccd6dd" fill-rule="evenodd" stroke="#ccd6dd" stroke-width="0.25" stroke-linejoin="round"/>
<path d="M149.87 128.23C159.57 127.22 169.85 128.52 179 131.73C187.8 134.82 195.83 139.18 202.95 145.31C241.16 178.27 233.11 239.01 189.01 262.29C181.43 266.29 172.83 269.03 164.24 269.85C153.83 270.86 143.28 269.76 133.46 266.3C124.25 263.06 115.86 258.28 108.56 251.7C72.64 219.29 79.94 161.07 121.4 137.19C130.05 132.21 139.95 129.26 149.87 128.23ZM348.89 128.23C358.53 127.2 368.97 128.44 378.04 131.7C401.26 140.03 418.57 158.42 424.76 182.45C435.18 222.94 404.74 266.02 363.25 269.87C352.89 270.82 342.22 269.82 332.46 266.3C322.42 262.68 313.21 257.27 305.56 249.69C272.11 216.54 279.86 160.61 320.45 137.23C329.11 132.24 338.95 129.3 348.89 128.23ZM257.25 355.73C256.42 355.73 255.58 355.73 254.75 355.73C251.8 360.65 249.2 365.34 243.6 367.79C232.07 372.83 217.83 367.03 214.19 354.62C211.67 345.99 214.94 336.69 222.09 331.36C224.05 329.9 226.9 329.48 228.66 327.93C230.52 326.3 231.47 323.38 233.27 321.52C237.83 316.84 244.85 313.88 251.27 313.14C260.42 312.1 270.34 314.23 277.43 320.31C279.9 322.43 281 325.99 283.35 327.92C285.1 329.36 287.74 329.76 289.63 331.13C295.35 335.27 299.31 342.58 298.64 349.75C297.37 363.24 284.2 372.98 270.89 368.8C264.01 366.64 260.72 361.51 257.25 355.73Z" fill="#292f33" fill-rule="evenodd" stroke="#292f33" stroke-width="0.25" stroke-linejoin="round"/>
</svg>